<?xml version="1.0" encoding="UTF-8"?>
<svg width="84px" height="99px" viewBox="0 0 84 99" version="1.1" xmlns="http://www.w3.org/2000/svg" xmlns:xlink="http://www.w3.org/1999/xlink">
    <!-- Generator: Sketch 49 (51002) - http://www.bohemiancoding.com/sketch -->
    <title>Logo-Red Copy</title>
    <desc>Created with Sketch.</desc>
    <defs>
        <polygon id="path-1" points="0 0.192460773 83.4741935 0.192460773 83.4741935 83.6628634 0 83.6628634"></polygon>
    </defs>
    <g id="Symbols" stroke="none" stroke-width="1" fill="none" fill-rule="evenodd">
        <g id="logo" transform="translate(-1.000000, -1.000000)">
            <g id="Logo-Red-Copy" transform="translate(0.847369, 0.850135)">
                <g id="Group-Copy" transform="translate(0.006994, 0.143577)">
                    <g id="Page-1" transform="translate(0.200488, 0.343020)">
                        <path d="M32.4880437,81.5227155 L32.2872688,82.9365638 C32.6775864,83.0264211 33.0665,83.1204904 33.4596257,83.1991155 L32.5849211,81.5227155 L32.4880437,81.5227155 Z" id="Fill-10" fill="#3A4358"></path>
                        <g id="Group-14" transform="translate(0.000000, 0.357885)">
                            <mask id="mask-2" fill="white">
                                <use xlink:href="#path-1"></use>
                            </mask>
                            <g id="Clip-13"></g>
                            <path d="M41.7368861,0.192460773 C18.6870871,0.192460773 -0.000421206048,18.8785651 -0.000421206048,41.9297681 C-0.000421206048,59.1781558 10.4651451,73.9807404 25.3912834,80.3409517 L26.8416362,71.7132478 C15.9323996,66.2347611 8.42369976,54.946439 8.42369976,41.9297681 C8.42369976,23.5609723 23.3680904,8.61658174 41.7368861,8.61658174 C60.1056819,8.61658174 75.0500725,23.5609723 75.0500725,41.9297681 C75.0500725,54.7147757 67.8053285,65.8332114 57.2105923,71.4155955 C54.0655872,73.0737433 50.6271418,74.2446962 46.9921336,74.8231525 C45.279229,75.0969364 43.5242038,75.2415505 41.7368861,75.2415505 C40.1854439,75.2415505 38.6592739,75.1264208 37.1639925,74.9200299 L41.8590359,83.6628634 C41.9896098,83.6628634 42.1187796,83.6544393 42.2507575,83.6530353 C45.138827,83.6179348 47.9566955,83.2907981 50.6748785,82.6968975 C51.0371157,82.6182724 51.3951408,82.5354352 51.753166,82.4469819 C54.1470203,81.8586975 56.4566335,81.05981 58.6679653,80.0755919 C73.2796031,73.5819986 83.4741935,58.9507045 83.4741935,41.9297681 C83.4741935,18.8785651 64.7866851,0.192460773 41.7368861,0.192460773" id="Fill-12" fill="#262F3D" mask="url(#mask-2)"></path>
                        </g>
                        <path d="M58.6674037,80.4340382 C56.4560719,81.4168524 54.1464587,82.2157398 51.7540084,82.8054283 L53.7505251,96.5227053 C53.7996658,96.9116189 54.236316,97.3005324 54.6729663,97.3005324 L60.4013686,97.3005324 C60.9840369,97.3005324 61.4206872,96.8638822 61.3238098,96.2320731 L58.6674037,80.4340382 Z" id="Fill-15" fill="#3A4358"></path>
                        <path d="M55.8381626,63.609103 C55.7904259,63.1724528 55.3523717,62.8326799 54.9648621,62.8326799 L54.1884389,62.8326799 C53.9455435,62.8326799 53.5074892,63.0264347 53.3628751,63.3170668 L46.9914316,75.1810372 C50.6278438,74.6025809 54.0662892,73.4316281 57.2112944,71.7734803 L55.8381626,63.609103 Z" id="Fill-17" fill="#3A4358"></path>
                        <path d="M42.1002466,84.289618 L42.0033692,84.289618 L41.8587551,84.0214502 L37.1637117,75.2786166 L30.7403194,63.3177688 C30.5943013,63.0257327 30.1576511,62.8319779 29.9147556,62.8319779 L29.1383324,62.8319779 C28.7494188,62.8319779 28.3127686,63.1717508 28.2650319,63.609805 L26.8413554,72.0704305 L25.3910026,80.6981344 L22.7781211,96.2322135 C22.6812437,96.8640226 23.117894,97.3006728 23.7019664,97.3006728 L29.4289646,97.3006728 C29.9147556,97.3006728 30.3036692,96.9117593 30.3514058,96.5228457 L32.2875496,82.9361426 L32.4883245,81.5222943 L32.5852019,81.5222943 L33.4599065,83.2000984 L40.7888917,97.2515321 C40.9349098,97.5421643 41.3224194,97.7850598 41.6144556,97.7850598 L42.4877561,97.7850598 C42.7306516,97.7850598 43.1673019,97.5421643 43.31332,97.2515321 L50.6745977,83.0540803 C47.9564147,83.6479808 45.1399502,83.9751175 42.2504767,84.010218 L42.1002466,84.289618 Z" id="Fill-19" fill="#3A4358"></path>
                    </g>
                </g>
            </g>
        </g>
    </g>
</svg>