<?xml version="1.0" encoding="UTF-8"?>
<svg width="174px" height="131px" viewBox="0 0 174 131" version="1.1" xmlns="http://www.w3.org/2000/svg" xmlns:xlink="http://www.w3.org/1999/xlink">
    <!-- Generator: Sketch 49 (51002) - http://www.bohemiancoding.com/sketch -->
    <title>logo</title>
    <desc>Created with Sketch.</desc>
    <defs>
        <polygon id="path-1" points="0.121094677 0.178190148 14.6864617 0.178190148 14.6864617 22.7343416 0.121094677 22.7343416"></polygon>
        <polygon id="path-3" points="0 0.12775111 55.4082824 0.12775111 55.4082824 55.5335172 0 55.5335172"></polygon>
        <polygon id="path-5" points="0.107287537 0.097896228 19.513117 0.097896228 19.513117 23.3081595 0.107287537 23.3081595"></polygon>
        <polygon id="path-7" points="0.338415869 0.097896228 15.5216547 0.097896228 15.5216547 23.3082528 0.338415869 23.3082528"></polygon>
    </defs>
    <g id="Page-1" stroke="none" stroke-width="1" fill="none" fill-rule="evenodd">
        <g id="MARiE-BEGiNS---CHOICE-1-Copy-62" transform="translate(-37.000000, -34.000000)">
            <g id="logo" transform="translate(36.000000, 33.000000)">
                <g id="Logo-Red-Copy" transform="translate(0.992289, 0.686515)">
                    <g id="Group-Copy" transform="translate(0.004643, 0.095303)">
                        <g id="Page-1" transform="translate(1.316813, 0.227689)">
                            <path d="M68.019336,56.6098342 L65.5701534,51.2930204 L65.5375349,51.2930204 L63.1209708,56.6098342 L68.019336,56.6098342 Z M54.7752973,63.5053828 L64.8609342,41.8187472 C64.9578577,41.6258321 65.1833913,41.4646036 65.4089249,41.4646036 L65.7313819,41.4646036 C65.9569155,41.4646036 66.182449,41.6258321 66.2793725,41.8187472 L76.3650095,63.5053828 C76.5588565,63.9247634 76.3007045,64.343212 75.8170189,64.343212 L72.2401685,64.343212 C71.6604913,64.343212 71.4023393,64.150297 71.1125007,63.5380013 L69.9522145,60.9918952 L61.1871604,60.9918952 L60.0278061,63.5706198 C59.8665775,63.95645 59.5124339,64.343212 58.8675198,64.343212 L55.3232879,64.343212 C54.8396023,64.343212 54.5823822,63.9247634 54.7752973,63.5053828 Z" id="Fill-1" fill="#CA495E"></path>
                            <path d="M101.921503,51.4217236 C103.243018,51.4217236 104.370685,50.1971324 104.370685,48.843931 C104.370685,47.4907297 103.243018,46.3947484 101.921503,46.3947484 L97.1526796,46.3947484 L97.1526796,51.4217236 L101.921503,51.4217236 Z M92.0930859,42.3994495 C92.0930859,42.0769924 92.350306,41.7871538 92.7053815,41.7871538 L102.339951,41.7871538 C106.207572,41.7871538 109.365042,44.9129371 109.365042,48.7470075 C109.365042,51.7115622 107.399545,54.0964398 104.596219,55.2241076 L109.009966,63.4085525 C109.236432,63.8279331 109.009966,64.3433052 108.462908,64.3433052 L104.176838,64.3433052 C103.919618,64.3433052 103.726703,64.1820767 103.661466,64.0534667 L99.3763286,55.5139461 L97.1526796,55.5139461 L97.1526796,63.7310096 C97.1526796,64.0534667 96.861909,64.3433052 96.5403839,64.3433052 L92.7053815,64.3433052 C92.350306,64.3433052 92.0930859,64.0534667 92.0930859,63.7310096 L92.0930859,42.3994495 Z" id="Fill-3" fill="#CA495E"></path>
                            <path d="M124.932915,52.0660786 C124.932915,51.711935 125.223686,51.453783 125.545211,51.453783 L129.089443,51.453783 C129.4119,51.453783 129.701738,51.711935 129.701738,52.0660786 L129.701738,63.7313824 C129.701738,64.0538394 129.4119,64.343678 129.089443,64.343678 L125.545211,64.343678 C125.223686,64.343678 124.932915,64.0538394 124.932915,63.7313824 L124.932915,52.0660786 Z M124.74,45.0093014 C124.74,43.5917951 125.867668,42.4315088 127.285174,42.4315088 C128.70268,42.4315088 129.862967,43.5917951 129.862967,45.0093014 C129.862967,46.4268078 128.70268,47.5554075 127.285174,47.5554075 C125.867668,47.5554075 124.74,46.4268078 124.74,45.0093014 Z" id="Fill-5" fill="#CA495E"></path>
                            <g id="Group-9" transform="translate(146.758286, 41.608870)">
                                <mask id="mask-2" fill="white">
                                    <use xlink:href="#path-1"></use>
                                </mask>
                                <g id="Clip-8"></g>
                                <path d="M0.121094677,0.790485792 C0.121094677,0.468028725 0.378314765,0.178190148 0.733390321,0.178190148 L14.0743525,0.178190148 C14.4284961,0.178190148 14.6866481,0.468028725 14.6866481,0.790485792 L14.6866481,4.30303112 C14.6866481,4.62455623 14.4284961,4.91532677 14.0743525,4.91532677 L5.14806987,4.91532677 L5.14806987,8.91062574 L12.4946856,8.91062574 C12.8171427,8.91062574 13.1079132,9.20046432 13.1079132,9.52292139 L13.1079132,13.0354667 C13.1079132,13.3896103 12.8171427,13.6477624 12.4946856,13.6477624 L5.14806987,13.6477624 L5.14806987,17.9981369 L14.0743525,17.9981369 C14.4284961,17.9981369 14.6866481,18.2879755 14.6866481,18.6104325 L14.6866481,22.1229779 C14.6866481,22.444503 14.4284961,22.7343416 14.0743525,22.7343416 L0.733390321,22.7343416 C0.378314765,22.7343416 0.121094677,22.444503 0.121094677,22.1229779 L0.121094677,0.790485792 Z" id="Fill-7" fill="#CA495E" mask="url(#mask-2)"></path>
                            </g>
                            <path d="M21.5648289,54.1129354 L21.4315591,55.051416 C21.6906431,55.1110612 21.9487951,55.1735023 22.209743,55.2256919 L21.6291339,54.1129354 L21.5648289,54.1129354 Z" id="Fill-10" fill="#D97874"></path>
                            <g id="Group-14" transform="translate(0.000000, 0.237556)">
                                <mask id="mask-4" fill="white">
                                    <use xlink:href="#path-3"></use>
                                </mask>
                                <g id="Clip-13"></g>
                                <path d="M27.7040014,0.12775111 C12.404066,0.12775111 -0.000279587052,12.5311647 -0.000279587052,27.8320321 C-0.000279587052,39.2811219 6.9465267,49.1067429 16.8541599,53.3285073 L17.8168713,47.6016326 C10.5755666,43.965137 5.59146145,36.472204 5.59146145,27.8320321 C5.59146145,15.6392408 15.5112101,5.71949215 27.7040014,5.71949215 C39.8967927,5.71949215 49.8165414,15.6392408 49.8165414,27.8320321 C49.8165414,36.3184311 45.0076441,43.6985973 37.9750977,47.4040577 C35.8875144,48.5046987 33.6051521,49.2819507 31.1923159,49.665917 C30.0553285,49.8476485 28.8903825,49.9436401 27.7040014,49.9436401 C26.6741891,49.9436401 25.661152,49.8672196 24.668618,49.730222 L27.7850817,55.5335172 C27.8717536,55.5335172 27.9574937,55.5279255 28.0450976,55.5269935 C29.9621328,55.5036946 31.8325702,55.2865487 33.6368387,54.8923309 C33.8772835,54.8401413 34.1149325,54.7851559 34.3525815,54.7264426 C35.9415679,54.3359527 37.4746369,53.8056692 38.9424689,53.1523675 C48.6413438,48.8420671 55.4082824,39.1301449 55.4082824,27.8320321 C55.4082824,12.5311647 43.0039369,0.12775111 27.7040014,0.12775111" id="Fill-12" fill="#D97874" mask="url(#mask-4)"></path>
                            </g>
                            <path d="M38.9420962,53.3902961 C37.4742641,54.0426659 35.9411951,54.5729493 34.3531407,54.9643712 L35.6783833,64.0695895 C35.7110018,64.3277416 36.0008404,64.5858936 36.2906789,64.5858936 L40.0930629,64.5858936 C40.4798249,64.5858936 40.7696635,64.296055 40.7053585,63.8766744 L38.9420962,53.3902961 Z" id="Fill-15" fill="#CA495E"></path>
                            <path d="M37.0641099,42.2222845 C37.0324234,41.9324459 36.7416529,41.7069123 36.4844328,41.7069123 L35.9690606,41.7069123 C35.8078321,41.7069123 35.5170616,41.8355224 35.42107,42.0284375 L31.1918499,49.9034728 C33.6056181,49.5195065 35.8879804,48.7422545 37.9755637,47.6416135 L37.0641099,42.2222845 Z" id="Fill-17" fill="#CA495E"></path>
                            <path d="M27.9451918,55.9495428 L27.8808868,55.9495428 L27.7848953,55.771539 L24.6684316,49.9682438 L20.404729,42.0289034 C20.3078055,41.8350564 20.017967,41.7064464 19.8567384,41.7064464 L19.3413663,41.7064464 C19.0832142,41.7064464 18.7933757,41.9319799 18.7616891,42.2227505 L17.8166849,47.8387224 L16.8539735,53.5655972 L15.1196018,63.8767676 C15.0552968,64.2961482 15.3451354,64.5859868 15.7328294,64.5859868 L19.5342814,64.5859868 C19.8567384,64.5859868 20.1148905,64.3278348 20.146577,64.0696827 L21.4317455,55.0511364 L21.5650153,54.1126558 L21.6293203,54.1126558 L22.2099294,55.2263442 L27.0747441,64.5533683 C27.1716677,64.7462834 27.4288877,64.9075119 27.6227348,64.9075119 L28.2024119,64.9075119 C28.3636405,64.9075119 28.653479,64.7462834 28.7504025,64.5533683 L33.6366523,55.1294207 C31.8323838,55.5236385 29.9628784,55.7407844 28.0449112,55.7640833 L27.9451918,55.9495428 Z" id="Fill-19" fill="#CA495E"></path>
                        </g>
                        <g id="Page-1" transform="translate(0.000868, 76.470882)">
                            <path d="M7.96222655,18.6864066 C9.21995999,18.6864066 10.2828333,17.655233 10.2828333,16.3331678 C10.2828333,15.0437346 8.89736861,14.0768928 7.63963517,14.0768928 L5.02906908,14.0768928 L5.02906908,18.6864066 L7.96222655,18.6864066 Z M7.54360363,9.8860019 C8.76777265,9.8860019 9.7998786,8.85389595 9.7998786,7.56446278 C9.7998786,6.27502961 8.76777265,5.37251962 7.54360363,5.37251962 L5.02906908,5.37251962 L5.02906908,9.8860019 L7.54360363,9.8860019 Z M0,1.3429244 C0,1.02033302 0.257327228,0.73037372 0.611618339,0.73037372 L8.12352224,0.73037372 C11.92749,0.73037372 15.0536428,3.34187214 15.0536428,6.7262846 C15.0536428,9.20818707 12.8299999,11.0141394 11.3149393,11.8196855 C13.0239277,12.5292001 15.6344938,14.1085925 15.6344938,17.0743821 C15.6344938,20.6853544 12.4440091,23.2959204 8.60647696,23.2959204 L0.611618339,23.2959204 C0.257327228,23.2959204 0,23.0059611 0,22.6843021 L0,1.3429244 Z" id="Fill-1" fill="#CA495E"></path>
                            <path d="M32.8205029,1.34283117 C32.8205029,1.02023979 33.0778302,0.730280485 33.4321213,0.730280485 L46.7795727,0.730280485 C47.1338638,0.730280485 47.391191,1.02023979 47.391191,1.34283117 L47.391191,4.85683958 C47.391191,5.17849862 47.1338638,5.46939027 46.7795727,5.46939027 L37.849572,5.46939027 L37.849572,9.4663534 L45.1992479,9.4663534 C45.5218393,9.4663534 45.8117986,9.75631271 45.8117986,10.0789041 L45.8117986,13.5929125 C45.8117986,13.9472036 45.5218393,14.2054632 45.1992479,14.2054632 L37.849572,14.2054632 L37.849572,18.5576498 L46.7795727,18.5576498 C47.1338638,18.5576498 47.391191,18.8476091 47.391191,19.1702005 L47.391191,22.6842089 C47.391191,23.0058679 47.1338638,23.2958272 46.7795727,23.2958272 L33.4321213,23.2958272 C33.0778302,23.2958272 32.8205029,23.0058679 32.8205029,22.6842089 L32.8205029,1.34283117 Z" id="Fill-3" fill="#CA495E"></path>
                            <path d="M74.7642817,0.440041478 C77.4718116,0.440041478 80.4376012,1.56817896 82.6304767,3.47016282 C82.920436,3.69579032 82.9521357,4.0827135 82.6948085,4.34097308 L80.1476419,7.04850304 C79.8903146,7.27413054 79.5350912,7.27413054 79.277764,7.08113512 C78.0517303,5.95299763 76.6345658,5.53344237 75.0551733,5.53344237 C71.5402326,5.53344237 68.7031066,8.49923191 68.7031066,12.0449401 C68.7031066,15.5589485 71.5728646,18.4604062 75.0868731,18.4604062 C76.0220151,18.4604062 76.9888569,18.3317426 77.9556987,17.9448194 L77.9556987,16.0754676 L75.9250512,16.0754676 C75.5698278,16.0754676 75.3125006,15.817208 75.3125006,15.4946167 L75.3125006,12.3031996 C75.3125006,11.9489085 75.5698278,11.6906489 75.9250512,11.6906489 L82.4039168,11.6906489 C82.7265082,11.6906489 82.9847678,11.9806082 82.9847678,12.3031996 L83.0173999,20.9749407 C83.0173999,21.1362364 82.8878039,21.394496 82.7591403,21.4914599 C82.7591403,21.4914599 79.4390597,23.5864392 74.7642817,23.5864392 C68.3488155,23.5864392 63.1910828,18.4930383 63.1910828,12.0449401 C63.1910828,5.59777418 68.3488155,0.440041478 74.7642817,0.440041478" id="Fill-5" fill="#CA495E"></path>
                            <path d="M99.4941742,11.0136732 C99.4941742,10.6593821 99.7850658,10.4011225 100.106725,10.4011225 L103.652433,10.4011225 C103.975024,10.4011225 104.264984,10.6593821 104.264984,11.0136732 L104.264984,22.6838359 C104.264984,23.0064273 103.975024,23.2963866 103.652433,23.2963866 L100.106725,23.2963866 C99.7850658,23.2963866 99.4941742,23.0064273 99.4941742,22.6838359 L99.4941742,11.0136732 Z M99.3002464,3.95395666 C99.3002464,2.53585987 100.429316,1.37509031 101.847413,1.37509031 C103.26551,1.37509031 104.426279,2.53585987 104.426279,3.95395666 C104.426279,5.37205345 103.26551,6.50112327 101.847413,6.50112327 C100.429316,6.50112327 99.3002464,5.37205345 99.3002464,3.95395666 Z" id="Fill-7" fill="#CA495E"></path>
                            <g id="Group-11" transform="translate(121.729416, 0.309886)">
                                <mask id="mask-6" fill="white">
                                    <use xlink:href="#path-5"></use>
                                </mask>
                                <g id="Clip-10"></g>
                                <path d="M0.107287537,0.678281008 C0.107287537,0.355689628 0.397246841,0.0974300555 0.718905876,0.0974300555 L1.52538433,0.0974300555 L14.387084,12.4771073 L14.4206484,12.4771073 L14.4206484,1.03257212 C14.4206484,0.710913084 14.6779756,0.420021435 15.0331991,0.420021435 L18.9005663,0.420021435 C19.2231577,0.420021435 19.513117,0.710913084 19.513117,1.03257212 L19.513117,22.7282409 C19.513117,23.0508323 19.2231577,23.3081595 18.9005663,23.3081595 L18.3849795,23.3081595 C18.2889479,23.3081595 18.0306884,23.212128 17.9663566,23.1477962 L5.23238816,10.349496 L5.20068843,10.349496 L5.20068843,22.3739498 C5.20068843,22.6965412 4.94242886,22.9865005 4.58813774,22.9865005 L0.751537952,22.9865005 C0.429878917,22.9865005 0.138987268,22.6965412 0.138987268,22.3739498 L0.107287537,0.678281008 Z" id="Fill-9" fill="#CA495E" mask="url(#mask-6)"></path>
                            </g>
                            <g id="Group-14" transform="translate(158.090873, 0.309886)">
                                <mask id="mask-8" fill="white">
                                    <use xlink:href="#path-7"></use>
                                </mask>
                                <g id="Clip-13"></g>
                                <path d="M0.499711559,19.9238403 L2.01477223,17.2480101 C2.27209946,16.8293872 2.88558249,16.893719 3.11120998,17.0550147 C3.23894125,17.1193465 5.56048038,18.8274026 7.68809173,18.8274026 C8.97845725,18.8274026 9.91266697,18.0218565 9.91266697,16.893719 C9.91266697,15.5390217 8.78452948,14.5078481 6.59165398,13.6370378 C3.82072455,12.5415324 0.338415869,10.381289 0.338415869,6.51298943 C0.338415869,3.3215724 2.82031834,0.09752329 7.78412327,0.09752329 C11.1377683,0.09752329 13.7166347,1.80651173 14.6834765,2.51602629 C15.0703997,2.74165379 15.0070002,3.3215724 14.8774042,3.5471999 L13.2327476,6.03003471 C13.0071201,6.38432582 12.4272015,6.67428512 12.1363099,6.44865763 C11.8472829,6.28736194 9.49311171,4.51404169 7.52679604,4.51404169 C6.36695883,4.51404169 5.49614857,5.28788806 5.49614857,6.15869832 C5.49614857,7.35116761 6.46299036,8.2536776 9.01015698,9.28578355 C11.5246915,10.2852574 15.5216547,12.2515731 15.5216547,16.6354594 C15.5216547,19.9564724 12.652829,23.3082528 7.91371923,23.3082528 C3.72282832,23.3082528 1.40222155,21.5675646 0.661007249,20.8263503 C0.338415869,20.5037589 0.241451986,20.3750953 0.499711559,19.9238403" id="Fill-12" fill="#CA495E" mask="url(#mask-8)"></path>
                            </g>
                        </g>
                    </g>
                </g>
                <g id="Logo" transform="translate(5.857144, 106.040256)">
                    <g id="An-Operactive" transform="translate(0.721009, 0.137410)">
                        <g id="Page-1" transform="translate(0.236369, 12.389650)" fill="#FFFFFF">
                            <path d="M3.85834152,4.45578017 L3.148542,2.91476805 L3.13920253,2.91476805 L2.43874248,4.45578017 L3.85834152,4.45578017 Z M0.0187827066,6.45546391 L2.94307372,0.167926914 C2.97109212,0.11189011 3.03646839,0.0651927727 3.10184466,0.0651927727 L3.19523934,0.0651927727 C3.26061561,0.0651927727 3.32599188,0.11189011 3.35401028,0.167926914 L6.2783013,6.45546391 C6.3343381,6.57583926 6.25858464,6.69829006 6.11953035,6.69829006 L5.08181175,6.69829006 C4.91473906,6.69829006 4.8389856,6.64121554 4.75493039,6.46480337 L4.41870957,5.72698545 L1.87733672,5.72698545 L1.54215361,6.47310512 C1.49441855,6.58621645 1.39272213,6.69829006 1.20489507,6.69829006 L0.177553652,6.69829006 C0.0374616414,6.69829006 -0.0372540977,6.57583926 0.0187827066,6.45546391 Z" id="Fill-1"></path>
                            <path d="M14.7473303,0.23299187 C14.7473303,0.139597196 14.8313855,0.0648814571 14.9247802,0.0648814571 L15.1582669,0.0648814571 L18.8857521,3.65227465 L18.8950916,3.65227465 L18.8950916,0.335726011 C18.8950916,0.242331338 18.9698073,0.158276131 19.0725414,0.158276131 L20.1943153,0.158276131 C20.2877099,0.158276131 20.3717651,0.242331338 20.3717651,0.335726011 L20.3717651,6.623263 C20.3717651,6.71665768 20.2877099,6.79137342 20.1943153,6.79137342 L20.0438461,6.79137342 C20.0168654,6.79137342 19.9411119,6.76335501 19.9234707,6.74467608 L16.2333434,3.03586981 L16.2229662,3.03586981 L16.2229662,6.52052886 C16.2229662,6.61392354 16.1492882,6.69797874 16.0455163,6.69797874 L14.9341197,6.69797874 C14.840725,6.69797874 14.7566698,6.61392354 14.7566698,6.52052886 L14.7473303,0.23299187 Z" id="Fill-3"></path>
                            <path d="M42.345664,5.296436 C43.3740431,5.296436 44.2145952,4.45588394 44.2145952,3.43684427 C44.2145952,2.40950286 43.3740431,1.55961133 42.345664,1.55961133 C41.3276621,1.55961133 40.4860723,2.40950286 40.4860723,3.43684427 C40.4860723,4.45588394 41.3276621,5.296436 42.345664,5.296436 M42.345664,0.0642588259 C44.2145952,0.0642588259 45.70891,1.56895079 45.70891,3.43684427 C45.70891,5.30577547 44.2145952,6.79075079 42.345664,6.79075079 C40.4777705,6.79075079 38.9917575,5.30577547 38.9917575,3.43684427 C38.9917575,1.56895079 40.4777705,0.0642588259 42.345664,0.0642588259" id="Fill-6"></path>
                            <path d="M56.8964504,2.9610503 C57.2980475,2.9610503 57.6342684,2.6435084 57.6342684,2.22323237 C57.6342684,1.83097474 57.2980475,1.53211178 56.8964504,1.53211178 L56.009201,1.53211178 L56.009201,2.9610503 L56.8964504,2.9610503 Z M54.5522441,0.33562224 C54.5522441,0.242227566 54.6259221,0.158172359 54.729694,0.158172359 L56.9805056,0.158172359 C58.1292601,0.158172359 59.0735841,1.0921191 59.0735841,2.22323237 C59.0735841,3.38132633 58.1292601,4.32461253 56.9898451,4.32461253 L56.009201,4.32461253 L56.009201,6.52042509 C56.009201,6.61381976 55.9251458,6.69787497 55.8317512,6.69787497 L54.729694,6.69787497 C54.6259221,6.69787497 54.5522441,6.61381976 54.5522441,6.52042509 L54.5522441,0.33562224 Z" id="Fill-9"></path>
                            <path d="M67.7671754,0.335829783 C67.7671754,0.242435109 67.8418911,0.158379903 67.9446253,0.158379903 L71.8122025,0.158379903 C71.9149366,0.158379903 71.9896524,0.242435109 71.9896524,0.335829783 L71.9896524,1.35383173 C71.9896524,1.4472264 71.9149366,1.53128161 71.8122025,1.53128161 L69.2241323,1.53128161 L69.2241323,2.69041328 L71.3545686,2.69041328 C71.4479633,2.69041328 71.5320185,2.77446849 71.5320185,2.86786317 L71.5320185,3.88586511 C71.5320185,3.98859925 71.4479633,4.06331499 71.3545686,4.06331499 L69.2241323,4.06331499 L69.2241323,5.32518081 L71.8122025,5.32518081 C71.9149366,5.32518081 71.9896524,5.40923601 71.9896524,5.50263069 L71.9896524,6.52063263 C71.9896524,6.61402731 71.9149366,6.69808251 71.8122025,6.69808251 L67.9446253,6.69808251 C67.8418911,6.69808251 67.7671754,6.61402731 67.7671754,6.52063263 L67.7671754,0.335829783 Z" id="Fill-11"></path>
                            <path d="M83.8037673,2.95191837 C84.1866855,2.95191837 84.5135668,2.59701861 84.5135668,2.20476098 C84.5135668,1.81146563 84.1866855,1.49392374 83.8037673,1.49392374 L82.4204884,1.49392374 L82.4204884,2.95191837 L83.8037673,2.95191837 Z M80.954192,0.335829783 C80.954192,0.242435109 81.0289078,0.158379903 81.1316419,0.158379903 L83.9241427,0.158379903 C85.0459165,0.158379903 85.9611843,1.06430824 85.9611843,2.17570486 C85.9611843,3.03597358 85.3914768,3.72709417 84.5789431,4.05397552 L85.8584501,6.42723796 C85.9238264,6.54865104 85.8584501,6.69808251 85.6996792,6.69808251 L84.45753,6.69808251 C84.3828143,6.69808251 84.3267775,6.65138518 84.3070608,6.61402731 L83.0649117,4.13803073 L82.4204884,4.13803073 L82.4204884,6.52063263 C82.4204884,6.61402731 82.3364332,6.69808251 82.2430385,6.69808251 L81.1316419,6.69808251 C81.0289078,6.69808251 80.954192,6.61402731 80.954192,6.52063263 L80.954192,0.335829783 Z" id="Fill-13"></path>
                            <path d="M97.9244194,4.45578017 L97.2135821,2.91476805 L97.2052804,2.91476805 L96.5048203,4.45578017 L97.9244194,4.45578017 Z M94.0848606,6.45546391 L97.0091516,0.167926914 C97.03717,0.11189011 97.1025462,0.0651927727 97.1679225,0.0651927727 L97.2613172,0.0651927727 C97.3266935,0.0651927727 97.3920697,0.11189011 97.4200881,0.167926914 L100.344379,6.45546391 C100.400416,6.57583926 100.324662,6.69829006 100.185608,6.69829006 L99.1489273,6.69829006 C98.9808169,6.69829006 98.9050635,6.64121554 98.8210082,6.46480337 L98.4847874,5.72698545 L95.9444523,5.72698545 L95.6082315,6.47310512 C95.5615341,6.58621645 95.4577623,6.69829006 95.2709729,6.69829006 L94.2436315,6.69829006 C94.1035395,6.69829006 94.0288238,6.57583926 94.0848606,6.45546391 Z" id="Fill-15"></path>
                            <path d="M111.718813,0.0647776852 C112.652759,0.0647776852 113.34388,0.354301174 113.980002,0.933348153 C114.064057,1.00910161 114.064057,1.12117522 113.989341,1.19485324 L113.259825,1.95238782 C113.194449,2.01776409 113.091714,2.01776409 113.026338,1.95238782 C112.680778,1.64314767 112.222106,1.47503726 111.76551,1.47503726 C110.709113,1.47503726 109.933937,2.35398491 109.933937,3.40000526 C109.933937,4.43668614 110.718452,5.29695486 111.77485,5.29695486 C112.213804,5.29695486 112.690117,5.13818392 113.026338,4.84762271 C113.091714,4.79262362 113.213127,4.79262362 113.269164,4.85799989 L113.997643,5.63317569 C114.064057,5.69855196 114.05368,5.81996504 113.989341,5.88534131 C113.35322,6.50174616 112.550025,6.79126964 111.718813,6.79126964 C109.849882,6.79126964 108.346227,5.30629433 108.346227,3.43736313 C108.346227,1.56946965 109.849882,0.0647776852 111.718813,0.0647776852" id="Fill-17"></path>
                            <path d="M123.662642,1.53159293 L122.327099,1.53159293 C122.224364,1.53159293 122.149649,1.44753772 122.149649,1.35414304 L122.149649,0.336141099 C122.149649,0.242746425 122.224364,0.158691218 122.327099,0.158691218 L126.47486,0.158691218 C126.578632,0.158691218 126.65231,0.242746425 126.65231,0.336141099 L126.65231,1.35414304 C126.65231,1.44753772 126.578632,1.53159293 126.47486,1.53159293 L125.139316,1.53159293 L125.139316,6.52094395 C125.139316,6.6133009 125.055261,6.69839383 124.961866,6.69839383 L123.84113,6.69839383 C123.746698,6.69839383 123.662642,6.6133009 123.662642,6.52094395 L123.662642,1.53159293 Z" id="Fill-20"></path>
                            <path d="M135.001586,3.1383964 C135.001586,3.03566226 135.085641,2.96094652 135.179036,2.96094652 L136.206377,2.96094652 C136.299772,2.96094652 136.383827,3.03566226 136.383827,3.1383964 L136.383827,6.52032132 C136.383827,6.61371599 136.299772,6.6977712 136.206377,6.6977712 L135.179036,6.6977712 C135.085641,6.6977712 135.001586,6.61371599 135.001586,6.52032132 L135.001586,3.1383964 Z M134.945549,1.09201533 C134.945549,0.681078761 135.272431,0.345895654 135.683367,0.345895654 C136.094304,0.345895654 136.430525,0.681078761 136.430525,1.09201533 C136.430525,1.50398961 136.094304,1.83087097 135.683367,1.83087097 C135.272431,1.83087097 134.945549,1.50398961 134.945549,1.09201533 Z" id="Fill-22"></path>
                            <path d="M144.563955,0.401206055 C144.507919,0.279792979 144.583672,0.158379903 144.722726,0.158379903 L145.965913,0.158379903 C146.040629,0.158379903 146.104968,0.214416707 146.124684,0.261114044 L147.665696,3.67105736 L147.721733,3.67105736 L149.262745,0.261114044 C149.282462,0.214416707 149.3468,0.158379903 149.422554,0.158379903 L150.664703,0.158379903 C150.804795,0.158379903 150.879511,0.279792979 150.823474,0.401206055 L147.889844,6.68874305 C147.861825,6.74477985 147.805788,6.79147719 147.731073,6.79147719 L147.637678,6.79147719 C147.562962,6.79147719 147.506925,6.74477985 147.478907,6.68874305 L144.563955,0.401206055 Z" id="Fill-24"></path>
                            <path d="M159.302776,0.335829783 C159.302776,0.242435109 159.377492,0.158379903 159.480226,0.158379903 L163.347804,0.158379903 C163.450538,0.158379903 163.525253,0.242435109 163.525253,0.335829783 L163.525253,1.35383173 C163.525253,1.4472264 163.450538,1.53128161 163.347804,1.53128161 L160.759733,1.53128161 L160.759733,2.69041328 L162.89017,2.69041328 C162.983564,2.69041328 163.06762,2.77446849 163.06762,2.86786317 L163.06762,3.88586511 C163.06762,3.98859925 162.983564,4.06331499 162.89017,4.06331499 L160.759733,4.06331499 L160.759733,5.32518081 L163.347804,5.32518081 C163.450538,5.32518081 163.525253,5.40923601 163.525253,5.50263069 L163.525253,6.52063263 C163.525253,6.61402731 163.450538,6.69808251 163.347804,6.69808251 L159.480226,6.69808251 C159.377492,6.69808251 159.302776,6.61402731 159.302776,6.52063263 L159.302776,0.335829783 Z" id="Fill-27"></path>
                        </g>
                        <path d="M97.6440832,0 L111.987842,25.2972732 L83.2851671,25.2972732 L97.6440832,0 Z M97.6411552,6.56775952 L88.8299418,22.0911925 L106.443068,22.0911925 L97.6411552,6.56775952 Z" id="Combined-Shape" fill="#DADADA" opacity="0.788722826"></path>
                    </g>
                </g>
            </g>
        </g>
    </g>
</svg>