<svg xmlns="http://www.w3.org/2000/svg" width="548" height="144" viewBox="0 0 548 144">
  <path fill="#CAE0DC" fill-rule="evenodd" d="M44.7204143,69.6984627 C43.5057825,69.6984627 43.0719854,68.5705903 43.6793013,67.4427178 L76.5611203,9.05363021 C76.908158,8.5330737 77.3419551,8.09927662 78.0360304,8.09927662 L78.8168652,8.09927662 C79.4241811,8.09927662 79.8579782,8.5330737 80.031497,9.05363021 L96.3422674,67.4427178 C96.6893051,68.5705903 95.9084703,69.6984627 94.6938385,69.6984627 L84.8900244,69.6984627 C83.3283549,69.6984627 82.4607607,69.2646656 82.113723,67.5294773 L80.6388129,60.6754833 L61.4649818,60.6754833 L58.0813645,67.6162367 C57.560808,68.7441091 56.4329356,69.6984627 54.6109878,69.6984627 L44.7204143,69.6984627 Z M67.6249004,48.8762026 L77.3419551,48.8762026 L74.6524132,34.38738 L74.5656538,34.38738 L67.6249004,48.8762026 Z M107.876503,68.2235526 L116.031888,9.66094613 C116.118647,8.79335196 116.986241,8.09927662 117.767076,8.09927662 L119.675783,8.09927662 L145.53009,41.5884116 L145.616849,41.5884116 L149.781301,10.6152997 C149.86806,9.74770554 150.562136,8.96687079 151.42973,8.96687079 L162.014379,8.96687079 C162.795214,8.96687079 163.489289,9.66094613 163.40253,10.4417809 L155.247144,69.0043873 C155.160385,69.8719815 154.37955,70.5660569 153.598715,70.5660569 L151.42973,70.5660569 L125.575424,36.0358089 L125.488664,36.0358089 L121.584491,68.0500338 C121.410972,68.9176279 120.716896,69.6984627 119.849302,69.6984627 L109.177894,69.6984627 C108.483819,69.6984627 107.789743,69.0043873 107.876503,68.2235526 Z M172.507501,63.8855817 C171.813426,63.0179876 171.986945,62.2371528 172.507501,61.4563181 L177.19251,54.4288053 C177.973344,53.3009329 179.361495,53.4744517 179.968811,53.9082488 C181.096683,54.775843 185.347895,57.7256631 190.032903,57.7256631 C193.243002,57.7256631 195.672265,55.2963995 195.585506,52.4333387 C195.498747,49.3099997 193.590039,46.9674954 189.859384,44.5382318 C184.393541,40.8943362 176.932231,35.428493 176.932231,26.4055136 C176.932231,17.0354966 183.439188,8.09927662 197.494213,8.09927662 C205.736358,8.09927662 211.635998,12.5240069 213.978502,14.4327141 C214.846097,15.1267894 215.193134,16.6016995 214.499059,17.3825342 L209.033216,24.0630093 C208.33914,24.9306035 206.86423,25.0173629 206.256914,24.4968064 C205.649598,23.9762499 201.138109,20.5926327 196.53986,20.5926327 C193.590039,20.5926327 190.987257,22.4145804 190.987257,25.0173629 C190.987257,28.0539425 192.895964,29.7023714 198.101529,32.8257105 C202.4395,35.428493 210.941923,40.9810957 210.941923,51.1319474 C210.941923,61.1092804 204.001169,70.5660569 189.252069,70.5660569 C180.05557,70.5660569 174.15593,65.9678078 172.507501,63.8855817 Z M233.494604,69.351425 L226.987648,11.0490968 C226.814129,9.83446496 227.594964,8.96687079 228.636077,8.96687079 L239.133966,8.96687079 C239.741282,8.96687079 240.348598,9.57418671 240.348598,10.1815026 L241.997027,39.592945 L242.344064,39.592945 L258.481316,9.05363021 C258.741594,8.5330737 259.262151,8.09927662 259.956226,8.09927662 L261.344377,8.09927662 C261.951693,8.09927662 262.472249,8.5330737 262.559009,9.05363021 L270.107078,39.592945 L270.367356,39.592945 L280.431449,10.1815026 C280.691727,9.57418671 281.385802,8.96687079 281.993118,8.96687079 L292.404248,8.96687079 C293.532121,8.96687079 294.052677,9.83446496 293.532121,11.0490968 L270.627634,69.351425 C270.367356,70.0455003 269.673281,70.5660569 269.065965,70.5660569 L267.764574,70.5660569 C267.244017,70.5660569 266.723461,70.1322598 266.549942,69.6117033 L257.179925,34.1271017 L256.832887,34.1271017 L237.485537,69.6117033 C237.138499,70.1322598 236.531184,70.5660569 236.010627,70.5660569 L234.795995,70.5660569 C234.10192,70.5660569 233.581363,70.0455003 233.494604,69.351425 Z M299.687272,68.0500338 L307.755898,10.6152997 C307.842657,9.74770554 308.623492,8.96687079 309.404327,8.96687079 L342.112627,8.96687079 C342.980221,8.96687079 343.500777,9.74770554 343.414018,10.6152997 L342.025867,20.0720762 C341.939108,20.9396703 341.245033,21.7205051 340.377438,21.7205051 L319.728697,21.7205051 L318.167028,32.4786728 L334.998355,32.4786728 C335.779189,32.4786728 336.386505,33.2595075 336.299746,34.1271017 L334.911595,43.5838782 C334.738076,44.5382318 333.957242,45.2323071 333.176407,45.2323071 L316.431839,45.2323071 L314.78341,56.9448284 L335.432152,56.9448284 C336.299746,56.9448284 336.733543,57.7256631 336.646784,58.5932573 L335.345392,68.0500338 C335.258633,68.9176279 334.477798,69.6984627 333.610204,69.6984627 L300.901904,69.6984627 C300.03431,69.6984627 299.513753,68.9176279 299.687272,68.0500338 Z M351.651395,68.0500338 L359.720021,10.6152997 C359.806781,9.74770554 360.587615,8.96687079 361.36845,8.96687079 L384.793493,8.96687079 C393.903231,8.96687079 400.06315,16.3414212 400.06315,25.2776412 C400.06315,34.5608988 394.770826,42.3692463 385.834606,45.1455477 L393.382675,67.1824396 C393.816472,68.310312 393.035637,69.6984627 391.734246,69.6984627 L380.542281,69.6984627 C379.934965,69.6984627 379.414409,69.351425 379.327649,68.9176279 L372.213377,45.9263824 L368.395963,45.9263824 L365.272624,68.0500338 C365.185864,68.9176279 364.40503,69.6984627 363.624195,69.6984627 L352.866027,69.6984627 C351.998433,69.6984627 351.477877,68.9176279 351.651395,68.0500338 Z M369.870873,34.9079365 L379.414409,34.9079365 C383.492101,34.9079365 386.441922,31.0905221 386.441922,26.9260701 C386.441922,23.8894905 384.880252,21.3734674 381.756913,21.3734674 L371.77958,21.3734674 L369.870873,34.9079365 Z M440.570263,68.0500338 L447.07722,21.7205051 L436.492571,21.7205051 C435.624977,21.7205051 435.10442,20.9396703 435.191179,20.0720762 L436.57933,10.6152997 C436.66609,9.74770554 437.446924,8.96687079 438.227759,8.96687079 L473.278564,8.96687079 C474.146158,8.96687079 474.666714,9.74770554 474.579955,10.6152997 L473.191804,20.0720762 C473.105045,20.9396703 472.410969,21.7205051 471.543375,21.7205051 L460.871967,21.7205051 L454.365011,68.0500338 C454.278251,68.9176279 453.410657,69.6984627 452.629822,69.6984627 L441.871655,69.6984627 C441.09082,69.6984627 440.483504,68.9176279 440.570263,68.0500338 Z M479.693993,68.0500338 L487.762619,10.6152997 C487.849378,9.74770554 488.716973,8.96687079 489.497807,8.96687079 L500.082456,8.96687079 C500.95005,8.96687079 501.470607,9.74770554 501.383847,10.6152997 L498.260508,32.4786728 L518.562212,32.4786728 L521.598792,10.6152997 C521.685551,9.74770554 522.466386,8.96687079 523.33398,8.96687079 L534.005388,8.96687079 C534.786223,8.96687079 535.393539,9.74770554 535.306779,10.6152997 L527.238154,68.0500338 C527.151394,68.9176279 526.2838,69.6984627 525.502965,69.6984627 L514.744798,69.6984627 C513.877203,69.6984627 513.443406,68.9176279 513.530166,68.0500338 L516.740264,45.2323071 L496.52532,45.2323071 L493.315222,68.0500338 C493.141703,68.9176279 492.447627,69.6984627 491.580033,69.6984627 L480.908625,69.6984627 C480.12779,69.6984627 479.607234,68.9176279 479.693993,68.0500338 Z M546.493977,68.0500338 L554.562603,10.6152997 C554.649362,9.74770554 555.430197,8.96687079 556.211032,8.96687079 L588.919332,8.96687079 C589.786926,8.96687079 590.307483,9.74770554 590.220723,10.6152997 L588.832572,20.0720762 C588.745813,20.9396703 588.051738,21.7205051 587.184144,21.7205051 L566.535402,21.7205051 L564.973733,32.4786728 L581.80506,32.4786728 C582.585894,32.4786728 583.19321,33.2595075 583.106451,34.1271017 L581.7183,43.5838782 C581.544781,44.5382318 580.763947,45.2323071 579.983112,45.2323071 L563.238544,45.2323071 L561.590116,56.9448284 L582.238857,56.9448284 C583.106451,56.9448284 583.540248,57.7256631 583.453489,58.5932573 L582.152097,68.0500338 C582.065338,68.9176279 581.284503,69.6984627 580.416909,69.6984627 L547.708609,69.6984627 C546.841015,69.6984627 546.320458,68.9176279 546.493977,68.0500338 Z M96.5977784,148.708034 L104.666404,91.2733 C104.753164,90.4057059 105.533998,89.6248711 106.314833,89.6248711 L117.15976,89.6248711 C117.940595,89.6248711 118.461152,90.4057059 118.374392,91.2733 L110.305766,148.708034 C110.219007,149.575628 109.438172,150.356463 108.657337,150.356463 L97.8124103,150.356463 C97.0315755,150.356463 96.511019,149.575628 96.5977784,148.708034 Z M129.56159,148.881553 L137.716975,90.3189465 C137.803734,89.4513523 138.671328,88.757277 139.452163,88.757277 L141.36087,88.757277 L167.215177,122.246412 L167.301936,122.246412 L171.466388,91.2733 C171.553147,90.4057059 172.247223,89.6248711 173.114817,89.6248711 L183.699466,89.6248711 C184.480301,89.6248711 185.174376,90.3189465 185.087617,91.0997812 L176.932231,149.662388 C176.845472,150.529982 176.064637,151.224057 175.283802,151.224057 L173.114817,151.224057 L147.260511,116.693809 L147.173751,116.693809 L143.269578,148.708034 C143.096059,149.575628 142.401983,150.356463 141.534389,150.356463 L130.862981,150.356463 C130.168906,150.356463 129.47483,149.662388 129.56159,148.881553 Z M202.261214,148.708034 L208.76817,102.378505 L198.183521,102.378505 C197.315927,102.378505 196.795371,101.597671 196.88213,100.730076 L198.270281,91.2733 C198.35704,90.4057059 199.137875,89.6248711 199.91871,89.6248711 L234.969514,89.6248711 C235.837108,89.6248711 236.357665,90.4057059 236.270905,91.2733 L234.882755,100.730076 C234.795995,101.597671 234.10192,102.378505 233.234326,102.378505 L222.562917,102.378505 L216.055961,148.708034 C215.969202,149.575628 215.101608,150.356463 214.320773,150.356463 L203.562605,150.356463 C202.78177,150.356463 202.174454,149.575628 202.261214,148.708034 Z M241.384944,148.708034 L249.453569,91.2733 C249.540329,90.4057059 250.321164,89.6248711 251.101998,89.6248711 L283.810299,89.6248711 C284.677893,89.6248711 285.198449,90.4057059 285.11169,91.2733 L283.723539,100.730076 C283.63678,101.597671 282.942704,102.378505 282.07511,102.378505 L261.426369,102.378505 L259.864699,113.136673 L276.696026,113.136673 C277.476861,113.136673 278.084177,113.917508 277.997418,114.785102 L276.609267,124.241879 C276.435748,125.196232 275.654913,125.890307 274.874079,125.890307 L258.129511,125.890307 L256.481082,137.602829 L277.129823,137.602829 C277.997418,137.602829 278.431215,138.383663 278.344455,139.251258 L277.043064,148.708034 C276.956305,149.575628 276.17547,150.356463 275.307876,150.356463 L242.599575,150.356463 C241.731981,150.356463 241.211425,149.575628 241.384944,148.708034 Z M293.349067,148.708034 L301.417693,91.2733 C301.504452,90.4057059 302.285287,89.6248711 303.066122,89.6248711 L326.491164,89.6248711 C335.600903,89.6248711 341.760822,96.9994216 341.760822,105.935642 C341.760822,115.218899 336.468497,123.027247 327.532277,125.803548 L335.080347,147.84044 C335.514144,148.968312 334.733309,150.356463 333.431918,150.356463 L322.239953,150.356463 C321.632637,150.356463 321.112081,150.009425 321.025321,149.575628 L313.911049,126.584383 L310.093635,126.584383 L306.970296,148.708034 C306.883536,149.575628 306.102701,150.356463 305.321867,150.356463 L294.563699,150.356463 C293.696105,150.356463 293.175548,149.575628 293.349067,148.708034 Z M311.568545,115.565937 L321.112081,115.565937 C325.189773,115.565937 328.139593,111.748522 328.139593,107.58407 C328.139593,104.547491 326.577924,102.031468 323.454585,102.031468 L313.477252,102.031468 L311.568545,115.565937 Z M351.906906,123.894841 C351.906906,104.113694 365.701654,88.757277 384.441688,88.757277 C392.163276,88.757277 398.062916,91.4468189 402.661165,96.8259027 C403.181722,97.5199781 403.094962,98.5610911 402.314128,99.2551664 L394.852818,105.848882 C394.158742,106.456198 393.377908,106.369439 392.857351,105.848882 C390.688366,103.419618 386.957711,101.857949 383.487334,101.857949 C374.551114,101.857949 366.916286,111.401485 366.916286,122.419931 C366.916286,130.575316 371.514535,137.34255 378.628807,137.34255 C381.578627,137.34255 385.65632,135.347084 388.692899,132.831061 C389.300215,132.310504 390.341328,132.397264 390.775125,132.91782 L396.674766,140.726168 C397.195322,141.420243 396.848284,142.461356 396.240968,143.068672 C390.08105,148.794794 383.574094,151.224057 376.63334,151.224057 C363.532668,151.224057 351.906906,139.164498 351.906906,123.894841 Z M410.030949,124.328638 C410.030949,104.72101 424.606531,88.757277 442.652489,88.757277 C456.100199,88.757277 466.858367,100.903595 466.858367,115.912974 C466.858367,135.433843 452.456303,151.224057 434.236826,151.224057 C420.875876,151.224057 410.030949,139.251258 410.030949,124.328638 Z M435.972014,137.34255 C444.561197,137.34255 452.629822,128.319571 452.629822,117.561403 C452.629822,109.406018 447.771295,102.638784 440.830542,102.638784 C432.414878,102.638784 424.259493,111.748522 424.259493,122.50669 C424.259493,130.575316 429.11802,137.34255 435.972014,137.34255 Z M475.616301,150.356463 C474.748706,150.356463 474.054631,149.575628 474.401669,148.447756 L491.059477,90.1454276 C491.319755,89.3645929 491.753552,88.757277 492.707906,88.757277 L493.922538,88.757277 C494.443094,88.757277 494.963651,89.1043146 495.137169,89.6248711 L507.890804,127.104939 L508.064323,127.104939 L532.703997,89.6248711 C533.051035,89.1043146 533.398072,88.757277 534.178907,88.757277 L535.480298,88.757277 C536.087614,88.757277 536.608171,89.3645929 536.608171,90.1454276 L537.041968,148.447756 C537.041968,149.575628 536.087614,150.356463 535.22002,150.356463 L524.548612,150.356463 C523.854536,150.356463 523.24722,149.662388 523.24722,148.968312 L524.201574,122.159652 L524.028055,122.159652 L507.457007,150.269704 C507.109969,150.79026 506.589412,151.224057 505.982097,151.224057 L504.593946,151.224057 C503.98663,151.224057 503.552833,150.79026 503.379314,150.269704 L494.616613,122.159652 L494.443094,122.159652 L488.022897,148.968312 C487.849378,149.662388 487.242062,150.356463 486.287709,150.356463 L475.616301,150.356463 Z" transform="translate(-42.85 -7.903)"/>
</svg>
