<svg xmlns="http://www.w3.org/2000/svg" width="543" height="187" viewBox="0 0 543 187">
  <g fill="none" fill-rule="evenodd">
    <path fill="#DA7D79" d="M1.95557763,106 C0.75157763,106 0.32157763,104.882 0.92357763,103.764 L33.5175776,45.886 C33.8615776,45.37 34.2915776,44.94 34.9795776,44.94 L35.7535776,44.94 C36.3555776,44.94 36.7855776,45.37 36.9575776,45.886 L53.1255776,103.764 C53.4695776,104.882 52.6955776,106 51.4915776,106 L41.7735776,106 C40.2255776,106 39.3655776,105.57 39.0215776,103.85 L37.5595776,97.056 L18.5535776,97.056 L15.1995776,103.936 C14.6835776,105.054 13.5655776,106 11.7595776,106 L1.95557763,106 Z M24.6595776,85.36 L34.2915776,85.36 L31.6255776,70.998 L31.5395776,70.998 L24.6595776,85.36 Z M64.5588517,104.538 L72.6428517,46.488 C72.7288517,45.628 73.5888517,44.94 74.3628517,44.94 L76.2548517,44.94 L101.882852,78.136 L101.968852,78.136 L106.096852,47.434 C106.182852,46.574 106.870852,45.8 107.730852,45.8 L118.222852,45.8 C118.996852,45.8 119.684852,46.488 119.598852,47.262 L111.514852,105.312 C111.428852,106.172 110.654852,106.86 109.880852,106.86 L107.730852,106.86 L82.1028517,72.632 L82.0168517,72.632 L78.1468517,104.366 C77.9748517,105.226 77.2868517,106 76.4268517,106 L65.8488517,106 C65.1608517,106 64.4728517,105.312 64.5588517,104.538 Z M128.624126,100.238 C127.936126,99.378 128.108126,98.604 128.624126,97.83 L133.268126,90.864 C134.042126,89.746 135.418126,89.918 136.020126,90.348 C137.138126,91.208 141.352126,94.132 145.996126,94.132 C149.178126,94.132 151.586126,91.724 151.500126,88.886 C151.414126,85.79 149.522126,83.468 145.824126,81.06 C140.406126,77.448 133.010126,72.03 133.010126,63.086 C133.010126,53.798 139.460126,44.94 153.392126,44.94 C161.562126,44.94 167.410126,49.326 169.732126,51.218 C170.592126,51.906 170.936126,53.368 170.248126,54.142 L164.830126,60.764 C164.142126,61.624 162.680126,61.71 162.078126,61.194 C161.476126,60.678 157.004126,57.324 152.446126,57.324 C149.522126,57.324 146.942126,59.13 146.942126,61.71 C146.942126,64.72 148.834126,66.354 153.994126,69.45 C158.294126,72.03 166.722126,77.534 166.722126,87.596 C166.722126,97.486 159.842126,106.86 145.222126,106.86 C136.106126,106.86 130.258126,102.302 128.624126,100.238 Z M189.0774,105.656 L182.6274,47.864 C182.4554,46.66 183.2294,45.8 184.2614,45.8 L194.6674,45.8 C195.2694,45.8 195.8714,46.402 195.8714,47.004 L197.5054,76.158 L197.8494,76.158 L213.8454,45.886 C214.1034,45.37 214.6194,44.94 215.3074,44.94 L216.6834,44.94 C217.2854,44.94 217.8014,45.37 217.8874,45.886 L225.3694,76.158 L225.6274,76.158 L235.6034,47.004 C235.8614,46.402 236.5494,45.8 237.1514,45.8 L247.4714,45.8 C248.5894,45.8 249.1054,46.66 248.5894,47.864 L225.8854,105.656 C225.6274,106.344 224.9394,106.86 224.3374,106.86 L223.0474,106.86 C222.5314,106.86 222.0154,106.43 221.8434,105.914 L212.5554,70.74 L212.2114,70.74 L193.0334,105.914 C192.6894,106.43 192.0874,106.86 191.5714,106.86 L190.3674,106.86 C189.6794,106.86 189.1634,106.344 189.0774,105.656 Z M254.690674,104.366 L262.688674,47.434 C262.774674,46.574 263.548674,45.8 264.322674,45.8 L296.744674,45.8 C297.604674,45.8 298.120674,46.574 298.034674,47.434 L296.658674,56.808 C296.572674,57.668 295.884674,58.442 295.024674,58.442 L274.556674,58.442 L273.008674,69.106 L289.692674,69.106 C290.466674,69.106 291.068674,69.88 290.982674,70.74 L289.606674,80.114 C289.434674,81.06 288.660674,81.748 287.886674,81.748 L271.288674,81.748 L269.654674,93.358 L290.122674,93.358 C290.982674,93.358 291.412674,94.132 291.326674,94.992 L290.036674,104.366 C289.950674,105.226 289.176674,106 288.316674,106 L255.894674,106 C255.034674,106 254.518674,105.226 254.690674,104.366 Z M306.199948,104.366 L314.197948,47.434 C314.283948,46.574 315.057948,45.8 315.831948,45.8 L339.051948,45.8 C348.081948,45.8 354.187948,53.11 354.187948,61.968 C354.187948,71.17 348.941948,78.91 340.083948,81.662 L347.565948,103.506 C347.995948,104.624 347.221948,106 345.931948,106 L334.837948,106 C334.235948,106 333.719948,105.656 333.633948,105.226 L326.581948,82.436 L322.797948,82.436 L319.701948,104.366 C319.615948,105.226 318.841948,106 318.067948,106 L307.403948,106 C306.543948,106 306.027948,105.226 306.199948,104.366 Z M324.259948,71.514 L333.719948,71.514 C337.761948,71.514 340.685948,67.73 340.685948,63.602 C340.685948,60.592 339.137948,58.098 336.041948,58.098 L326.151948,58.098 L324.259948,71.514 Z M394.340496,104.366 L400.790496,58.442 L390.298496,58.442 C389.438496,58.442 388.922496,57.668 389.008496,56.808 L390.384496,47.434 C390.470496,46.574 391.244496,45.8 392.018496,45.8 L426.762496,45.8 C427.622496,45.8 428.138496,46.574 428.052496,47.434 L426.676496,56.808 C426.590496,57.668 425.902496,58.442 425.042496,58.442 L414.464496,58.442 L408.014496,104.366 C407.928496,105.226 407.068496,106 406.294496,106 L395.630496,106 C394.856496,106 394.254496,105.226 394.340496,104.366 Z M433.12177,104.366 L441.11977,47.434 C441.20577,46.574 442.06577,45.8 442.83977,45.8 L453.33177,45.8 C454.19177,45.8 454.70777,46.574 454.62177,47.434 L451.52577,69.106 L471.64977,69.106 L474.65977,47.434 C474.74577,46.574 475.51977,45.8 476.37977,45.8 L486.95777,45.8 C487.73177,45.8 488.33377,46.574 488.24777,47.434 L480.24977,104.366 C480.16377,105.226 479.30377,106 478.52977,106 L467.86577,106 C467.00577,106 466.57577,105.226 466.66177,104.366 L469.84377,81.748 L449.80577,81.748 L446.62377,104.366 C446.45177,105.226 445.76377,106 444.90377,106 L434.32577,106 C433.55177,106 433.03577,105.226 433.12177,104.366 Z M499.337044,104.366 L507.335044,47.434 C507.421044,46.574 508.195044,45.8 508.969044,45.8 L541.391044,45.8 C542.251044,45.8 542.767044,46.574 542.681044,47.434 L541.305044,56.808 C541.219044,57.668 540.531044,58.442 539.671044,58.442 L519.203044,58.442 L517.655044,69.106 L534.339044,69.106 C535.113044,69.106 535.715044,69.88 535.629044,70.74 L534.253044,80.114 C534.081044,81.06 533.307044,81.748 532.533044,81.748 L515.935044,81.748 L514.301044,93.358 L534.769044,93.358 C535.629044,93.358 536.059044,94.132 535.973044,94.992 L534.683044,104.366 C534.597044,105.226 533.823044,106 532.963044,106 L500.541044,106 C499.681044,106 499.165044,105.226 499.337044,104.366 Z M53.3788517,184.366 L61.3768517,127.434 C61.4628517,126.574 62.2368517,125.8 63.0108517,125.8 L73.7608517,125.8 C74.5348517,125.8 75.0508517,126.574 74.9648517,127.434 L66.9668517,184.366 C66.8808517,185.226 66.1068517,186 65.3328517,186 L54.5828517,186 C53.8088517,186 53.2928517,185.226 53.3788517,184.366 Z M86.0541258,184.538 L94.1381258,126.488 C94.2241258,125.628 95.0841258,124.94 95.8581258,124.94 L97.7501258,124.94 L123.378126,158.136 L123.464126,158.136 L127.592126,127.434 C127.678126,126.574 128.366126,125.8 129.226126,125.8 L139.718126,125.8 C140.492126,125.8 141.180126,126.488 141.094126,127.262 L133.010126,185.312 C132.924126,186.172 132.150126,186.86 131.376126,186.86 L129.226126,186.86 L103.598126,152.632 L103.512126,152.632 L99.6421258,184.366 C99.4701258,185.226 98.7821258,186 97.9221258,186 L87.3441258,186 C86.6561258,186 85.9681258,185.312 86.0541258,184.538 Z M158.1174,184.366 L164.5674,138.442 L154.0754,138.442 C153.2154,138.442 152.6994,137.668 152.7854,136.808 L154.1614,127.434 C154.2474,126.574 155.0214,125.8 155.7954,125.8 L190.5394,125.8 C191.3994,125.8 191.9154,126.574 191.8294,127.434 L190.4534,136.808 C190.3674,137.668 189.6794,138.442 188.8194,138.442 L178.2414,138.442 L171.7914,184.366 C171.7054,185.226 170.8454,186 170.0714,186 L159.4074,186 C158.6334,186 158.0314,185.226 158.1174,184.366 Z M196.898674,184.366 L204.896674,127.434 C204.982674,126.574 205.756674,125.8 206.530674,125.8 L238.952674,125.8 C239.812674,125.8 240.328674,126.574 240.242674,127.434 L238.866674,136.808 C238.780674,137.668 238.092674,138.442 237.232674,138.442 L216.764674,138.442 L215.216674,149.106 L231.900674,149.106 C232.674674,149.106 233.276674,149.88 233.190674,150.74 L231.814674,160.114 C231.642674,161.06 230.868674,161.748 230.094674,161.748 L213.496674,161.748 L211.862674,173.358 L232.330674,173.358 C233.190674,173.358 233.620674,174.132 233.534674,174.992 L232.244674,184.366 C232.158674,185.226 231.384674,186 230.524674,186 L198.102674,186 C197.242674,186 196.726674,185.226 196.898674,184.366 Z M248.407948,184.366 L256.405948,127.434 C256.491948,126.574 257.265948,125.8 258.039948,125.8 L281.259948,125.8 C290.289948,125.8 296.395948,133.11 296.395948,141.968 C296.395948,151.17 291.149948,158.91 282.291948,161.662 L289.773948,183.506 C290.203948,184.624 289.429948,186 288.139948,186 L277.045948,186 C276.443948,186 275.927948,185.656 275.841948,185.226 L268.789948,162.436 L265.005948,162.436 L261.909948,184.366 C261.823948,185.226 261.049948,186 260.275948,186 L249.611948,186 C248.751948,186 248.235948,185.226 248.407948,184.366 Z M266.467948,151.514 L275.927948,151.514 C279.969948,151.514 282.893948,147.73 282.893948,143.602 C282.893948,140.592 281.345948,138.098 278.249948,138.098 L268.359948,138.098 L266.467948,151.514 Z M306.453222,159.77 C306.453222,140.162 320.127222,124.94 338.703222,124.94 C346.357222,124.94 352.205222,127.606 356.763222,132.938 C357.279222,133.626 357.193222,134.658 356.419222,135.346 L349.023222,141.882 C348.335222,142.484 347.561222,142.398 347.045222,141.882 C344.895222,139.474 341.197222,137.926 337.757222,137.926 C328.899222,137.926 321.331222,147.386 321.331222,158.308 C321.331222,166.392 325.889222,173.1 332.941222,173.1 C335.865222,173.1 339.907222,171.122 342.917222,168.628 C343.519222,168.112 344.551222,168.198 344.981222,168.714 L350.829222,176.454 C351.345222,177.142 351.001222,178.174 350.399222,178.776 C344.293222,184.452 337.843222,186.86 330.963222,186.86 C317.977222,186.86 306.453222,174.906 306.453222,159.77 Z M364.068496,160.2 C364.068496,140.764 378.516496,124.94 396.404496,124.94 C409.734496,124.94 420.398496,136.98 420.398496,151.858 C420.398496,171.208 406.122496,186.86 388.062496,186.86 C374.818496,186.86 364.068496,174.992 364.068496,160.2 Z M389.782496,173.1 C398.296496,173.1 406.294496,164.156 406.294496,153.492 C406.294496,145.408 401.478496,138.7 394.598496,138.7 C386.256496,138.7 378.172496,147.73 378.172496,158.394 C378.172496,166.392 382.988496,173.1 389.782496,173.1 Z M429.07977,186 C428.21977,186 427.53177,185.226 427.87577,184.108 L444.38777,126.316 C444.64577,125.542 445.07577,124.94 446.02177,124.94 L447.22577,124.94 C447.74177,124.94 448.25777,125.284 448.42977,125.8 L461.07177,162.952 L461.24377,162.952 L485.66777,125.8 C486.01177,125.284 486.35577,124.94 487.12977,124.94 L488.41977,124.94 C489.02177,124.94 489.53777,125.542 489.53777,126.316 L489.96777,184.108 C489.96777,185.226 489.02177,186 488.16177,186 L477.58377,186 C476.89577,186 476.29377,185.312 476.29377,184.624 L477.23977,158.05 L477.06777,158.05 L460.64177,185.914 C460.29777,186.43 459.78177,186.86 459.17977,186.86 L457.80377,186.86 C457.20177,186.86 456.77177,186.43 456.59977,185.914 L447.91377,158.05 L447.74177,158.05 L441.37777,184.624 C441.20577,185.312 440.60377,186 439.65777,186 L429.07977,186 Z"/>
    <path fill="#DEDEDE" d="M166,7.942 C166,3.542 169.52,0 173.898,0 C175.878,0 177.77,0.77 179.266,2.046 C179.442,2.222 179.464,2.486 179.288,2.662 L177.924,4.092 C177.748,4.268 177.55,4.268 177.352,4.092 C176.406,3.256 175.24,2.816 174.03,2.816 C171.28,2.816 169.102,5.17 169.102,7.92 C169.102,10.648 171.28,12.958 174.052,12.958 C175.284,12.958 176.23,12.584 176.67,12.408 L176.67,10.538 L174.91,10.538 C174.668,10.538 174.492,10.362 174.492,10.142 L174.492,8.404 C174.492,8.162 174.668,7.986 174.91,7.986 L179.134,7.986 C179.354,7.986 179.53,8.184 179.53,8.404 L179.53,14.036 C179.53,14.212 179.442,14.322 179.354,14.388 C179.354,14.388 177.088,15.818 173.898,15.818 C169.52,15.818 166,12.342 166,7.942 Z M182.454791,11.22 C182.454791,8.734 184.324791,6.6 186.942791,6.6 C189.208791,6.6 191.056791,8.316 191.056791,10.692 C191.056791,10.846 191.034791,11.132 191.012791,11.286 C190.990791,11.506 190.792791,11.66 190.594791,11.66 L184.962791,11.66 C185.028791,12.562 185.798791,13.574 187.074791,13.574 C187.756791,13.574 188.394791,13.31 188.790791,13.024 C189.010791,12.892 189.208791,12.848 189.362791,13.024 L190.264791,14.058 C190.418791,14.212 190.462791,14.454 190.242791,14.63 C189.516791,15.312 188.394791,15.84 186.964791,15.84 C184.324791,15.84 182.454791,13.75 182.454791,11.22 Z M185.160791,10.12 L188.482791,10.12 C188.416791,9.306 187.712791,8.624 186.876791,8.624 C185.996791,8.624 185.270791,9.284 185.160791,10.12 Z M194.575583,13.002 L194.575583,9.13 L193.827583,9.13 C193.607583,9.13 193.431583,8.932 193.431583,8.712 L193.431583,7.238 C193.431583,6.996 193.607583,6.82 193.827583,6.82 L194.575583,6.82 L194.575583,4.378 C194.575583,4.158 194.773583,3.96 194.993583,3.96 L196.797583,3.938 C197.017583,3.938 197.193583,4.136 197.193583,4.356 L197.193583,6.82 L199.129583,6.82 C199.371583,6.82 199.547583,6.996 199.547583,7.238 L199.547583,8.712 C199.547583,8.932 199.371583,9.13 199.129583,9.13 L197.193583,9.13 L197.193583,12.65 C197.193583,13.266 197.523583,13.354 197.875583,13.354 C198.249583,13.354 198.711583,13.2 198.953583,13.112 C199.195583,13.024 199.371583,13.134 199.437583,13.354 L199.877583,14.74 C199.965583,14.96 199.855583,15.18 199.635583,15.268 C199.525583,15.334 198.095583,15.84 197.017583,15.84 C195.323583,15.84 194.575583,14.784 194.575583,13.002 Z M208.983166,15.202 L208.983166,7.238 C208.983166,6.996 209.181166,6.82 209.401166,6.82 L210.237166,6.82 C210.435166,6.82 210.567166,6.93 210.633166,7.106 L210.941166,7.964 C211.249166,7.524 212.063166,6.6 213.427166,6.6 C214.461166,6.6 215.385166,6.93 215.121166,7.48 L214.307166,8.91 C214.197166,9.108 213.977166,9.196 213.801166,9.108 C213.735166,9.086 213.405166,8.976 213.163166,8.976 C212.283166,8.976 211.755166,9.57 211.601166,9.878 L211.601166,15.202 C211.601166,15.51 211.403166,15.62 211.095166,15.62 L209.401166,15.62 C209.181166,15.62 208.983166,15.422 208.983166,15.202 Z M216.967957,11.22 C216.967957,8.734 218.837957,6.6 221.455957,6.6 C223.721957,6.6 225.569957,8.316 225.569957,10.692 C225.569957,10.846 225.547957,11.132 225.525957,11.286 C225.503957,11.506 225.305957,11.66 225.107957,11.66 L219.475957,11.66 C219.541957,12.562 220.311957,13.574 221.587957,13.574 C222.269957,13.574 222.907957,13.31 223.303957,13.024 C223.523957,12.892 223.721957,12.848 223.875957,13.024 L224.777957,14.058 C224.931957,14.212 224.975957,14.454 224.755957,14.63 C224.029957,15.312 222.907957,15.84 221.477957,15.84 C218.837957,15.84 216.967957,13.75 216.967957,11.22 Z M219.673957,10.12 L222.995957,10.12 C222.929957,9.306 222.225957,8.624 221.389957,8.624 C220.509957,8.624 219.783957,9.284 219.673957,10.12 Z M227.988749,12.826 C227.988749,11.264 229.264749,10.054 231.508749,10.054 C232.388749,10.054 233.114749,10.296 233.114749,10.296 C233.136749,9.174 232.784749,8.778 231.970749,8.778 C231.156749,8.778 230.012749,8.954 229.506749,9.108 C229.198749,9.196 229.044749,8.998 229.000749,8.712 L228.802749,7.568 C228.736749,7.238 228.912749,7.084 229.110749,7.018 C229.286749,6.952 230.694749,6.6 232.102749,6.6 C234.852749,6.6 235.490749,8.03 235.490749,10.428 L235.490749,15.202 C235.490749,15.422 235.292749,15.62 235.072749,15.62 L234.280749,15.62 C234.126749,15.62 234.016749,15.554 233.906749,15.312 L233.642749,14.718 C233.136749,15.18 232.322749,15.84 230.958749,15.84 C229.198749,15.84 227.988749,14.696 227.988749,12.826 Z M230.408749,12.826 C230.408749,13.486 230.870749,13.97 231.552749,13.97 C232.256749,13.97 232.938749,13.376 233.070749,13.112 L233.070749,11.902 C233.070749,11.902 232.476749,11.638 231.838749,11.638 C230.980749,11.638 230.408749,12.122 230.408749,12.826 Z M238.56954,11.22 C238.56954,8.646 240.30754,6.6 242.92554,6.6 C243.80554,6.6 244.48754,6.842 244.88354,6.996 L244.88354,0.638 C244.88354,0.418 245.08154,0.22 245.30154,0.22 L247.17154,0.22 C247.39154,0.22 247.58954,0.418 247.58954,0.638 L247.58954,15.202 C247.58954,15.422 247.39154,15.62 247.17154,15.62 L246.31354,15.62 C246.11554,15.62 245.96154,15.444 245.89554,15.202 L245.67554,14.52 C245.67554,14.52 244.64154,15.84 242.79354,15.84 C240.39554,15.84 238.56954,13.75 238.56954,11.22 Z M241.12154,11.22 C241.12154,12.452 241.95754,13.464 243.12354,13.464 C244.28954,13.464 244.81754,12.562 244.97154,12.034 L244.97154,9.482 C244.97154,9.482 244.35554,8.976 243.25554,8.976 C242.02354,8.976 241.12154,9.988 241.12154,11.22 Z M253.880332,15.004 L250.294332,7.392 C250.162332,7.106 250.338332,6.82 250.668332,6.82 L252.648332,6.82 C252.846332,6.82 252.956332,6.93 253.022332,7.062 L255.244332,12.034 L255.266332,12.034 L257.466332,7.062 C257.576332,6.842 257.730332,6.82 257.994332,6.82 L259.754332,6.82 C260.106332,6.82 260.282332,7.106 260.128332,7.392 L253.396332,21.956 C253.330332,22.088 253.198332,22.22 253.022332,22.22 L251.130332,22.22 C250.800332,22.22 250.602332,21.934 250.756332,21.626 L253.880332,15.004 Z M269.431915,15.202 L269.431915,9.13 L268.683915,9.13 C268.441915,9.13 268.265915,8.932 268.265915,8.712 L268.265915,7.238 C268.265915,6.996 268.441915,6.82 268.683915,6.82 L269.431915,6.82 L269.431915,4.444 C269.431915,1.54 271.213915,0 273.545915,0 C274.711915,0 275.745915,0.506 276.141915,0.858 C276.273915,0.968 276.317915,1.21 276.229915,1.364 L275.481915,2.772 C275.393915,2.948 275.151915,2.992 274.953915,2.882 C274.667915,2.706 274.139915,2.442 273.655915,2.442 C272.709915,2.442 272.181915,3.168 272.181915,4.444 L272.181915,6.82 L274.381915,6.82 C274.623915,6.82 274.799915,6.996 274.799915,7.238 L274.799915,8.712 C274.799915,8.932 274.623915,9.13 274.381915,9.13 L272.181915,9.13 L272.181915,15.202 C272.181915,15.422 271.983915,15.62 271.763915,15.62 L269.849915,15.62 C269.629915,15.62 269.431915,15.422 269.431915,15.202 Z M276.998706,11.198 C276.998706,8.712 279.022706,6.6 281.508706,6.6 C283.994706,6.6 286.018706,8.712 286.018706,11.198 C286.018706,13.728 283.994706,15.84 281.508706,15.84 C279.022706,15.84 276.998706,13.728 276.998706,11.198 Z M279.396706,11.198 C279.396706,12.452 280.320706,13.464 281.508706,13.464 C282.674706,13.464 283.620706,12.452 283.620706,11.198 C283.620706,9.966 282.674706,8.976 281.508706,8.976 C280.320706,8.976 279.396706,9.966 279.396706,11.198 Z M289.185498,15.202 L289.185498,7.238 C289.185498,6.996 289.383498,6.82 289.603498,6.82 L290.439498,6.82 C290.637498,6.82 290.769498,6.93 290.835498,7.106 L291.143498,7.964 C291.451498,7.524 292.265498,6.6 293.629498,6.6 C294.663498,6.6 295.587498,6.93 295.323498,7.48 L294.509498,8.91 C294.399498,9.108 294.179498,9.196 294.003498,9.108 C293.937498,9.086 293.607498,8.976 293.365498,8.976 C292.485498,8.976 291.957498,9.57 291.803498,9.878 L291.803498,15.202 C291.803498,15.51 291.605498,15.62 291.297498,15.62 L289.603498,15.62 C289.383498,15.62 289.185498,15.422 289.185498,15.202 Z M303.637081,15.114 L306.255081,0.33 C306.277081,0.154 306.409081,0 306.651081,0 L307.003081,0 C307.179081,0 307.311081,0.088 307.377081,0.22 L312.217081,10.604 L312.283081,10.604 L317.123081,0.22 C317.189081,0.088 317.299081,0 317.497081,0 L317.849081,0 C318.091081,0 318.223081,0.154 318.245081,0.33 L320.841081,15.114 C320.907081,15.422 320.731081,15.62 320.445081,15.62 L318.443081,15.62 C318.245081,15.62 318.069081,15.444 318.025081,15.29 L316.727081,6.952 L316.661081,6.952 L312.811081,15.598 C312.767081,15.73 312.635081,15.84 312.437081,15.84 L312.041081,15.84 C311.843081,15.84 311.733081,15.73 311.667081,15.598 L307.773081,6.952 L307.707081,6.952 L306.431081,15.29 C306.409081,15.444 306.233081,15.62 306.035081,15.62 L304.055081,15.62 C303.769081,15.62 303.593081,15.422 303.637081,15.114 Z M323.523872,12.826 C323.523872,11.264 324.799872,10.054 327.043872,10.054 C327.923872,10.054 328.649872,10.296 328.649872,10.296 C328.671872,9.174 328.319872,8.778 327.505872,8.778 C326.691872,8.778 325.547872,8.954 325.041872,9.108 C324.733872,9.196 324.579872,8.998 324.535872,8.712 L324.337872,7.568 C324.271872,7.238 324.447872,7.084 324.645872,7.018 C324.821872,6.952 326.229872,6.6 327.637872,6.6 C330.387872,6.6 331.025872,8.03 331.025872,10.428 L331.025872,15.202 C331.025872,15.422 330.827872,15.62 330.607872,15.62 L329.815872,15.62 C329.661872,15.62 329.551872,15.554 329.441872,15.312 L329.177872,14.718 C328.671872,15.18 327.857872,15.84 326.493872,15.84 C324.733872,15.84 323.523872,14.696 323.523872,12.826 Z M325.943872,12.826 C325.943872,13.486 326.405872,13.97 327.087872,13.97 C327.791872,13.97 328.473872,13.376 328.605872,13.112 L328.605872,11.902 C328.605872,11.902 328.011872,11.638 327.373872,11.638 C326.515872,11.638 325.943872,12.122 325.943872,12.826 Z M334.764664,15.202 L334.764664,7.238 C334.764664,6.996 334.962664,6.82 335.182664,6.82 L336.018664,6.82 C336.216664,6.82 336.348664,6.93 336.414664,7.106 L336.722664,7.964 C337.030664,7.524 337.844664,6.6 339.208664,6.6 C340.242664,6.6 341.166664,6.93 340.902664,7.48 L340.088664,8.91 C339.978664,9.108 339.758664,9.196 339.582664,9.108 C339.516664,9.086 339.186664,8.976 338.944664,8.976 C338.064664,8.976 337.536664,9.57 337.382664,9.878 L337.382664,15.202 C337.382664,15.51 337.184664,15.62 336.876664,15.62 L335.182664,15.62 C334.962664,15.62 334.764664,15.422 334.764664,15.202 Z M344.773455,3.696 C343.937455,3.696 343.277455,3.014 343.277455,2.178 C343.277455,1.342 343.937455,0.66 344.773455,0.66 C345.631455,0.66 346.313455,1.342 346.313455,2.178 C346.313455,3.014 345.631455,3.696 344.773455,3.696 Z M343.475455,15.202 L343.475455,7.238 C343.475455,6.996 343.673455,6.82 343.893455,6.82 L345.719455,6.82 C345.939455,6.82 346.137455,6.996 346.137455,7.238 L346.137455,15.202 C346.137455,15.422 345.939455,15.62 345.719455,15.62 L343.893455,15.62 C343.673455,15.62 343.475455,15.422 343.475455,15.202 Z M349.326247,11.22 C349.326247,8.734 351.196247,6.6 353.814247,6.6 C356.080247,6.6 357.928247,8.316 357.928247,10.692 C357.928247,10.846 357.906247,11.132 357.884247,11.286 C357.862247,11.506 357.664247,11.66 357.466247,11.66 L351.834247,11.66 C351.900247,12.562 352.670247,13.574 353.946247,13.574 C354.628247,13.574 355.266247,13.31 355.662247,13.024 C355.882247,12.892 356.080247,12.848 356.234247,13.024 L357.136247,14.058 C357.290247,14.212 357.334247,14.454 357.114247,14.63 C356.388247,15.312 355.266247,15.84 353.836247,15.84 C351.196247,15.84 349.326247,13.75 349.326247,11.22 Z M352.032247,10.12 L355.354247,10.12 C355.288247,9.306 354.584247,8.624 353.748247,8.624 C352.868247,8.624 352.142247,9.284 352.032247,10.12 Z M367.51783,13.002 L367.51783,9.13 L366.76983,9.13 C366.54983,9.13 366.37383,8.932 366.37383,8.712 L366.37383,7.238 C366.37383,6.996 366.54983,6.82 366.76983,6.82 L367.51783,6.82 L367.51783,4.378 C367.51783,4.158 367.71583,3.96 367.93583,3.96 L369.73983,3.938 C369.95983,3.938 370.13583,4.136 370.13583,4.356 L370.13583,6.82 L372.07183,6.82 C372.31383,6.82 372.48983,6.996 372.48983,7.238 L372.48983,8.712 C372.48983,8.932 372.31383,9.13 372.07183,9.13 L370.13583,9.13 L370.13583,12.65 C370.13583,13.266 370.46583,13.354 370.81783,13.354 C371.19183,13.354 371.65383,13.2 371.89583,13.112 C372.13783,13.024 372.31383,13.134 372.37983,13.354 L372.81983,14.74 C372.90783,14.96 372.79783,15.18 372.57783,15.268 C372.46783,15.334 371.03783,15.84 369.95983,15.84 C368.26583,15.84 367.51783,14.784 367.51783,13.002 Z M375.172621,11.198 C375.172621,8.712 377.196621,6.6 379.682621,6.6 C382.168621,6.6 384.192621,8.712 384.192621,11.198 C384.192621,13.728 382.168621,15.84 379.682621,15.84 C377.196621,15.84 375.172621,13.728 375.172621,11.198 Z M377.570621,11.198 C377.570621,12.452 378.494621,13.464 379.682621,13.464 C380.848621,13.464 381.794621,12.452 381.794621,11.198 C381.794621,9.966 380.848621,8.976 379.682621,8.976 C378.494621,8.976 377.570621,9.966 377.570621,11.198 Z"/>
  </g>
</svg>
