<svg xmlns="http://www.w3.org/2000/svg" width="432" height="189" viewBox="0 0 432 189">
  <g fill="none" fill-rule="evenodd">
    <path fill="#DA7D79" d="M102.500364,81.4224156 C102.500364,61.9864156 116.948364,46.1624156 134.836364,46.1624156 C148.166364,46.1624156 158.830364,58.2024156 158.830364,73.0804156 C158.830364,92.4304156 144.554364,108.082416 126.494364,108.082416 C113.250364,108.082416 102.500364,96.2144156 102.500364,81.4224156 Z M128.214364,94.3224156 C136.728364,94.3224156 144.726364,85.3784156 144.726364,74.7144156 C144.726364,66.6304156 139.910364,59.9224156 133.030364,59.9224156 C124.688364,59.9224156 116.604364,68.9524156 116.604364,79.6164156 C116.604364,87.6144156 121.420364,94.3224156 128.214364,94.3224156 Z M169.747638,105.588416 L177.745638,48.6564156 C177.831638,47.7964156 178.605638,47.0224156 179.465638,47.0224156 L198.385638,47.0224156 C206.985638,47.0224156 213.263638,54.9344156 213.263638,64.0504156 C213.263638,75.4884156 204.233638,85.3784156 193.053638,85.3784156 L186.001638,85.3784156 L183.163638,105.588416 C183.077638,106.448416 182.217638,107.222416 181.443638,107.222416 L170.951638,107.222416 C170.091638,107.222416 169.661638,106.448416 169.747638,105.588416 Z M187.807638,72.8224156 L193.999638,72.8224156 C197.009638,72.8224156 199.933638,69.3824156 199.933638,64.9964156 C199.933638,61.9864156 198.213638,59.6644156 195.891638,59.6644156 L189.613638,59.6644156 L187.807638,72.8224156 Z M221.256912,105.588416 L229.254912,48.6564156 C229.340912,47.7964156 230.114912,47.0224156 230.888912,47.0224156 L263.310912,47.0224156 C264.170912,47.0224156 264.686912,47.7964156 264.600912,48.6564156 L263.224912,58.0304156 C263.138912,58.8904156 262.450912,59.6644156 261.590912,59.6644156 L241.122912,59.6644156 L239.574912,70.3284156 L256.258912,70.3284156 C257.032912,70.3284156 257.634912,71.1024156 257.548912,71.9624156 L256.172912,81.3364156 C256.000912,82.2824156 255.226912,82.9704156 254.452912,82.9704156 L237.854912,82.9704156 L236.220912,94.5804156 L256.688912,94.5804156 C257.548912,94.5804156 257.978912,95.3544156 257.892912,96.2144156 L256.602912,105.588416 C256.516912,106.448416 255.742912,107.222416 254.882912,107.222416 L222.460912,107.222416 C221.600912,107.222416 221.084912,106.448416 221.256912,105.588416 Z M272.766186,105.760416 L280.850186,47.7104156 C280.936186,46.8504156 281.796186,46.1624156 282.570186,46.1624156 L284.462186,46.1624156 L310.090186,79.3584156 L310.176186,79.3584156 L314.304186,48.6564156 C314.390186,47.7964156 315.078186,47.0224156 315.938186,47.0224156 L326.430186,47.0224156 C327.204186,47.0224156 327.892186,47.7104156 327.806186,48.4844156 L319.722186,106.534416 C319.636186,107.394416 318.862186,108.082416 318.088186,108.082416 L315.938186,108.082416 L290.310186,73.8544156 L290.224186,73.8544156 L286.354186,105.588416 C286.182186,106.448416 285.494186,107.222416 284.634186,107.222416 L274.056186,107.222416 C273.368186,107.222416 272.680186,106.534416 272.766186,105.760416 Z M5.93181599,185.588416 L12.381816,139.664416 L1.88981599,139.664416 C1.02981599,139.664416 0.513815988,138.890416 0.599815988,138.030416 L1.97581599,128.656416 C2.06181599,127.796416 2.83581599,127.022416 3.60981599,127.022416 L38.353816,127.022416 C39.213816,127.022416 39.729816,127.796416 39.643816,128.656416 L38.267816,138.030416 C38.181816,138.890416 37.493816,139.664416 36.633816,139.664416 L26.055816,139.664416 L19.605816,185.588416 C19.519816,186.448416 18.659816,187.222416 17.885816,187.222416 L7.22181599,187.222416 C6.44781599,187.222416 5.84581599,186.448416 5.93181599,185.588416 Z M44.7130901,185.588416 L52.7110901,128.656416 C52.7970901,127.796416 53.6570901,127.022416 54.4310901,127.022416 L64.9230901,127.022416 C65.7830901,127.022416 66.2990901,127.796416 66.2130901,128.656416 L63.1170901,150.328416 L83.2410901,150.328416 L86.2510901,128.656416 C86.3370901,127.796416 87.1110901,127.022416 87.9710901,127.022416 L98.5490901,127.022416 C99.3230901,127.022416 99.9250901,127.796416 99.8390901,128.656416 L91.8410901,185.588416 C91.7550901,186.448416 90.8950901,187.222416 90.1210901,187.222416 L79.4570901,187.222416 C78.5970901,187.222416 78.1670901,186.448416 78.2530901,185.588416 L81.4350901,162.970416 L61.3970901,162.970416 L58.2150901,185.588416 C58.0430901,186.448416 57.3550901,187.222416 56.4950901,187.222416 L45.9170901,187.222416 C45.1430901,187.222416 44.6270901,186.448416 44.7130901,185.588416 Z M110.928364,185.588416 L118.926364,128.656416 C119.012364,127.796416 119.786364,127.022416 120.560364,127.022416 L152.982364,127.022416 C153.842364,127.022416 154.358364,127.796416 154.272364,128.656416 L152.896364,138.030416 C152.810364,138.890416 152.122364,139.664416 151.262364,139.664416 L130.794364,139.664416 L129.246364,150.328416 L145.930364,150.328416 C146.704364,150.328416 147.306364,151.102416 147.220364,151.962416 L145.844364,161.336416 C145.672364,162.282416 144.898364,162.970416 144.124364,162.970416 L127.526364,162.970416 L125.892364,174.580416 L146.360364,174.580416 C147.220364,174.580416 147.650364,175.354416 147.564364,176.214416 L146.274364,185.588416 C146.188364,186.448416 145.414364,187.222416 144.554364,187.222416 L112.132364,187.222416 C111.272364,187.222416 110.756364,186.448416 110.928364,185.588416 Z M186.426912,185.588416 L194.424912,128.656416 C194.510912,127.796416 195.284912,127.022416 196.058912,127.022416 L215.236912,127.022416 C228.824912,127.022416 238.542912,139.836416 238.542912,153.166416 C238.542912,171.828416 224.954912,187.222416 206.808912,187.222416 L187.544912,187.222416 C186.770912,187.222416 186.254912,186.448416 186.426912,185.588416 Z M201.476912,174.494416 L207.926912,174.494416 C216.784912,174.494416 224.180912,165.464416 224.180912,154.198416 C224.180912,146.114416 219.794912,139.664416 212.828912,139.664416 L206.378912,139.664416 L201.476912,174.494416 Z M249.202186,161.422416 C249.202186,141.986416 263.650186,126.162416 281.538186,126.162416 C294.868186,126.162416 305.532186,138.202416 305.532186,153.080416 C305.532186,172.430416 291.256186,188.082416 273.196186,188.082416 C259.952186,188.082416 249.202186,176.214416 249.202186,161.422416 Z M274.916186,174.322416 C283.430186,174.322416 291.428186,165.378416 291.428186,154.714416 C291.428186,146.630416 286.612186,139.922416 279.732186,139.922416 C271.390186,139.922416 263.306186,148.952416 263.306186,159.616416 C263.306186,167.614416 268.122186,174.322416 274.916186,174.322416 Z M316.191461,161.422416 C316.191461,141.986416 330.639461,126.162416 348.527461,126.162416 C361.857461,126.162416 372.521461,138.202416 372.521461,153.080416 C372.521461,172.430416 358.245461,188.082416 340.185461,188.082416 C326.941461,188.082416 316.191461,176.214416 316.191461,161.422416 Z M341.905461,174.322416 C350.419461,174.322416 358.417461,165.378416 358.417461,154.714416 C358.417461,146.630416 353.601461,139.922416 346.721461,139.922416 C338.379461,139.922416 330.295461,148.952416 330.295461,159.616416 C330.295461,167.614416 335.111461,174.322416 341.905461,174.322416 Z M383.438735,185.588416 L391.436735,128.656416 C391.522735,127.796416 392.296735,127.022416 393.070735,127.022416 L416.290735,127.022416 C425.320735,127.022416 431.426735,134.332416 431.426735,143.190416 C431.426735,152.392416 426.180735,160.132416 417.322735,162.884416 L424.804735,184.728416 C425.234735,185.846416 424.460735,187.222416 423.170735,187.222416 L412.076735,187.222416 C411.474735,187.222416 410.958735,186.878416 410.872735,186.448416 L403.820735,163.658416 L400.036735,163.658416 L396.940735,185.588416 C396.854735,186.448416 396.080735,187.222416 395.306735,187.222416 L384.642735,187.222416 C383.782735,187.222416 383.266735,186.448416 383.438735,185.588416 Z M401.498735,152.736416 L410.958735,152.736416 C415.000735,152.736416 417.924735,148.952416 417.924735,144.824416 C417.924735,141.814416 416.376735,139.320416 413.280735,139.320416 L403.390735,139.320416 L401.498735,152.736416 Z"/>
    <path fill="#DEDEDE" d="M105.936459,8.8122054 C105.936459,4.4122054 109.456459,0.870205402 113.834459,0.870205402 C115.814459,0.870205402 117.706459,1.6402054 119.202459,2.9162054 C119.378459,3.0922054 119.400459,3.3562054 119.224459,3.5322054 L117.860459,4.9622054 C117.684459,5.1382054 117.486459,5.1382054 117.288459,4.9622054 C116.342459,4.1262054 115.176459,3.6862054 113.966459,3.6862054 C111.216459,3.6862054 109.038459,6.0402054 109.038459,8.7902054 C109.038459,11.5182054 111.216459,13.8282054 113.988459,13.8282054 C115.220459,13.8282054 116.166459,13.4542054 116.606459,13.2782054 L116.606459,11.4082054 L114.846459,11.4082054 C114.604459,11.4082054 114.428459,11.2322054 114.428459,11.0122054 L114.428459,9.2742054 C114.428459,9.0322054 114.604459,8.8562054 114.846459,8.8562054 L119.070459,8.8562054 C119.290459,8.8562054 119.466459,9.0542054 119.466459,9.2742054 L119.466459,14.9062054 C119.466459,15.0822054 119.378459,15.1922054 119.290459,15.2582054 C119.290459,15.2582054 117.024459,16.6882054 113.834459,16.6882054 C109.456459,16.6882054 105.936459,13.2122054 105.936459,8.8122054 Z M122.391251,12.0902054 C122.391251,9.6042054 124.261251,7.4702054 126.879251,7.4702054 C129.145251,7.4702054 130.993251,9.1862054 130.993251,11.5622054 C130.993251,11.7162054 130.971251,12.0022054 130.949251,12.1562054 C130.927251,12.3762054 130.729251,12.5302054 130.531251,12.5302054 L124.899251,12.5302054 C124.965251,13.4322054 125.735251,14.4442054 127.011251,14.4442054 C127.693251,14.4442054 128.331251,14.1802054 128.727251,13.8942054 C128.947251,13.7622054 129.145251,13.7182054 129.299251,13.8942054 L130.201251,14.9282054 C130.355251,15.0822054 130.399251,15.3242054 130.179251,15.5002054 C129.453251,16.1822054 128.331251,16.7102054 126.901251,16.7102054 C124.261251,16.7102054 122.391251,14.6202054 122.391251,12.0902054 Z M125.097251,10.9902054 L128.419251,10.9902054 C128.353251,10.1762054 127.649251,9.4942054 126.813251,9.4942054 C125.933251,9.4942054 125.207251,10.1542054 125.097251,10.9902054 Z M134.512042,13.8722054 L134.512042,10.0002054 L133.764042,10.0002054 C133.544042,10.0002054 133.368042,9.8022054 133.368042,9.5822054 L133.368042,8.1082054 C133.368042,7.8662054 133.544042,7.6902054 133.764042,7.6902054 L134.512042,7.6902054 L134.512042,5.2482054 C134.512042,5.0282054 134.710042,4.8302054 134.930042,4.8302054 L136.734042,4.8082054 C136.954042,4.8082054 137.130042,5.0062054 137.130042,5.2262054 L137.130042,7.6902054 L139.066042,7.6902054 C139.308042,7.6902054 139.484042,7.8662054 139.484042,8.1082054 L139.484042,9.5822054 C139.484042,9.8022054 139.308042,10.0002054 139.066042,10.0002054 L137.130042,10.0002054 L137.130042,13.5202054 C137.130042,14.1362054 137.460042,14.2242054 137.812042,14.2242054 C138.186042,14.2242054 138.648042,14.0702054 138.890042,13.9822054 C139.132042,13.8942054 139.308042,14.0042054 139.374042,14.2242054 L139.814042,15.6102054 C139.902042,15.8302054 139.792042,16.0502054 139.572042,16.1382054 C139.462042,16.2042054 138.032042,16.7102054 136.954042,16.7102054 C135.260042,16.7102054 134.512042,15.6542054 134.512042,13.8722054 Z M148.919625,16.0722054 L148.919625,8.1082054 C148.919625,7.8662054 149.117625,7.6902054 149.337625,7.6902054 L150.173625,7.6902054 C150.371625,7.6902054 150.503625,7.8002054 150.569625,7.9762054 L150.877625,8.8342054 C151.185625,8.3942054 151.999625,7.4702054 153.363625,7.4702054 C154.397625,7.4702054 155.321625,7.8002054 155.057625,8.3502054 L154.243625,9.7802054 C154.133625,9.9782054 153.913625,10.0662054 153.737625,9.9782054 C153.671625,9.9562054 153.341625,9.8462054 153.099625,9.8462054 C152.219625,9.8462054 151.691625,10.4402054 151.537625,10.7482054 L151.537625,16.0722054 C151.537625,16.3802054 151.339625,16.4902054 151.031625,16.4902054 L149.337625,16.4902054 C149.117625,16.4902054 148.919625,16.2922054 148.919625,16.0722054 Z M156.904417,12.0902054 C156.904417,9.6042054 158.774417,7.4702054 161.392417,7.4702054 C163.658417,7.4702054 165.506417,9.1862054 165.506417,11.5622054 C165.506417,11.7162054 165.484417,12.0022054 165.462417,12.1562054 C165.440417,12.3762054 165.242417,12.5302054 165.044417,12.5302054 L159.412417,12.5302054 C159.478417,13.4322054 160.248417,14.4442054 161.524417,14.4442054 C162.206417,14.4442054 162.844417,14.1802054 163.240417,13.8942054 C163.460417,13.7622054 163.658417,13.7182054 163.812417,13.8942054 L164.714417,14.9282054 C164.868417,15.0822054 164.912417,15.3242054 164.692417,15.5002054 C163.966417,16.1822054 162.844417,16.7102054 161.414417,16.7102054 C158.774417,16.7102054 156.904417,14.6202054 156.904417,12.0902054 Z M159.610417,10.9902054 L162.932417,10.9902054 C162.866417,10.1762054 162.162417,9.4942054 161.326417,9.4942054 C160.446417,9.4942054 159.720417,10.1542054 159.610417,10.9902054 Z M167.925208,13.6962054 C167.925208,12.1342054 169.201208,10.9242054 171.445208,10.9242054 C172.325208,10.9242054 173.051208,11.1662054 173.051208,11.1662054 C173.073208,10.0442054 172.721208,9.6482054 171.907208,9.6482054 C171.093208,9.6482054 169.949208,9.8242054 169.443208,9.9782054 C169.135208,10.0662054 168.981208,9.8682054 168.937208,9.5822054 L168.739208,8.4382054 C168.673208,8.1082054 168.849208,7.9542054 169.047208,7.8882054 C169.223208,7.8222054 170.631208,7.4702054 172.039208,7.4702054 C174.789208,7.4702054 175.427208,8.9002054 175.427208,11.2982054 L175.427208,16.0722054 C175.427208,16.2922054 175.229208,16.4902054 175.009208,16.4902054 L174.217208,16.4902054 C174.063208,16.4902054 173.953208,16.4242054 173.843208,16.1822054 L173.579208,15.5882054 C173.073208,16.0502054 172.259208,16.7102054 170.895208,16.7102054 C169.135208,16.7102054 167.925208,15.5662054 167.925208,13.6962054 Z M170.345208,13.6962054 C170.345208,14.3562054 170.807208,14.8402054 171.489208,14.8402054 C172.193208,14.8402054 172.875208,14.2462054 173.007208,13.9822054 L173.007208,12.7722054 C173.007208,12.7722054 172.413208,12.5082054 171.775208,12.5082054 C170.917208,12.5082054 170.345208,12.9922054 170.345208,13.6962054 Z M178.506,12.0902054 C178.506,9.5162054 180.244,7.4702054 182.862,7.4702054 C183.742,7.4702054 184.424,7.7122054 184.82,7.8662054 L184.82,1.5082054 C184.82,1.2882054 185.018,1.0902054 185.238,1.0902054 L187.108,1.0902054 C187.328,1.0902054 187.526,1.2882054 187.526,1.5082054 L187.526,16.0722054 C187.526,16.2922054 187.328,16.4902054 187.108,16.4902054 L186.25,16.4902054 C186.052,16.4902054 185.898,16.3142054 185.832,16.0722054 L185.612,15.3902054 C185.612,15.3902054 184.578,16.7102054 182.73,16.7102054 C180.332,16.7102054 178.506,14.6202054 178.506,12.0902054 Z M181.058,12.0902054 C181.058,13.3222054 181.894,14.3342054 183.06,14.3342054 C184.226,14.3342054 184.754,13.4322054 184.908,12.9042054 L184.908,10.3522054 C184.908,10.3522054 184.292,9.8462054 183.192,9.8462054 C181.96,9.8462054 181.058,10.8582054 181.058,12.0902054 Z M193.816791,15.8742054 L190.230791,8.2622054 C190.098791,7.9762054 190.274791,7.6902054 190.604791,7.6902054 L192.584791,7.6902054 C192.782791,7.6902054 192.892791,7.8002054 192.958791,7.9322054 L195.180791,12.9042054 L195.202791,12.9042054 L197.402791,7.9322054 C197.512791,7.7122054 197.666791,7.6902054 197.930791,7.6902054 L199.690791,7.6902054 C200.042791,7.6902054 200.218791,7.9762054 200.064791,8.2622054 L193.332791,22.8262054 C193.266791,22.9582054 193.134791,23.0902054 192.958791,23.0902054 L191.066791,23.0902054 C190.736791,23.0902054 190.538791,22.8042054 190.692791,22.4962054 L193.816791,15.8742054 Z M209.368374,16.0722054 L209.368374,10.0002054 L208.620374,10.0002054 C208.378374,10.0002054 208.202374,9.8022054 208.202374,9.5822054 L208.202374,8.1082054 C208.202374,7.8662054 208.378374,7.6902054 208.620374,7.6902054 L209.368374,7.6902054 L209.368374,5.3142054 C209.368374,2.4102054 211.150374,0.870205402 213.482374,0.870205402 C214.648374,0.870205402 215.682374,1.3762054 216.078374,1.7282054 C216.210374,1.8382054 216.254374,2.0802054 216.166374,2.2342054 L215.418374,3.6422054 C215.330374,3.8182054 215.088374,3.8622054 214.890374,3.7522054 C214.604374,3.5762054 214.076374,3.3122054 213.592374,3.3122054 C212.646374,3.3122054 212.118374,4.0382054 212.118374,5.3142054 L212.118374,7.6902054 L214.318374,7.6902054 C214.560374,7.6902054 214.736374,7.8662054 214.736374,8.1082054 L214.736374,9.5822054 C214.736374,9.8022054 214.560374,10.0002054 214.318374,10.0002054 L212.118374,10.0002054 L212.118374,16.0722054 C212.118374,16.2922054 211.920374,16.4902054 211.700374,16.4902054 L209.786374,16.4902054 C209.566374,16.4902054 209.368374,16.2922054 209.368374,16.0722054 Z M216.935166,12.0682054 C216.935166,9.5822054 218.959166,7.4702054 221.445166,7.4702054 C223.931166,7.4702054 225.955166,9.5822054 225.955166,12.0682054 C225.955166,14.5982054 223.931166,16.7102054 221.445166,16.7102054 C218.959166,16.7102054 216.935166,14.5982054 216.935166,12.0682054 Z M219.333166,12.0682054 C219.333166,13.3222054 220.257166,14.3342054 221.445166,14.3342054 C222.611166,14.3342054 223.557166,13.3222054 223.557166,12.0682054 C223.557166,10.8362054 222.611166,9.8462054 221.445166,9.8462054 C220.257166,9.8462054 219.333166,10.8362054 219.333166,12.0682054 Z M229.121957,16.0722054 L229.121957,8.1082054 C229.121957,7.8662054 229.319957,7.6902054 229.539957,7.6902054 L230.375957,7.6902054 C230.573957,7.6902054 230.705957,7.8002054 230.771957,7.9762054 L231.079957,8.8342054 C231.387957,8.3942054 232.201957,7.4702054 233.565957,7.4702054 C234.599957,7.4702054 235.523957,7.8002054 235.259957,8.3502054 L234.445957,9.7802054 C234.335957,9.9782054 234.115957,10.0662054 233.939957,9.9782054 C233.873957,9.9562054 233.543957,9.8462054 233.301957,9.8462054 C232.421957,9.8462054 231.893957,10.4402054 231.739957,10.7482054 L231.739957,16.0722054 C231.739957,16.3802054 231.541957,16.4902054 231.233957,16.4902054 L229.539957,16.4902054 C229.319957,16.4902054 229.121957,16.2922054 229.121957,16.0722054 Z M243.57354,15.9842054 L246.19154,1.2002054 C246.21354,1.0242054 246.34554,0.870205402 246.58754,0.870205402 L246.93954,0.870205402 C247.11554,0.870205402 247.24754,0.958205402 247.31354,1.0902054 L252.15354,11.4742054 L252.21954,11.4742054 L257.05954,1.0902054 C257.12554,0.958205402 257.23554,0.870205402 257.43354,0.870205402 L257.78554,0.870205402 C258.02754,0.870205402 258.15954,1.0242054 258.18154,1.2002054 L260.77754,15.9842054 C260.84354,16.2922054 260.66754,16.4902054 260.38154,16.4902054 L258.37954,16.4902054 C258.18154,16.4902054 258.00554,16.3142054 257.96154,16.1602054 L256.66354,7.8222054 L256.59754,7.8222054 L252.74754,16.4682054 C252.70354,16.6002054 252.57154,16.7102054 252.37354,16.7102054 L251.97754,16.7102054 C251.77954,16.7102054 251.66954,16.6002054 251.60354,16.4682054 L247.70954,7.8222054 L247.64354,7.8222054 L246.36754,16.1602054 C246.34554,16.3142054 246.16954,16.4902054 245.97154,16.4902054 L243.99154,16.4902054 C243.70554,16.4902054 243.52954,16.2922054 243.57354,15.9842054 Z M263.460332,13.6962054 C263.460332,12.1342054 264.736332,10.9242054 266.980332,10.9242054 C267.860332,10.9242054 268.586332,11.1662054 268.586332,11.1662054 C268.608332,10.0442054 268.256332,9.6482054 267.442332,9.6482054 C266.628332,9.6482054 265.484332,9.8242054 264.978332,9.9782054 C264.670332,10.0662054 264.516332,9.8682054 264.472332,9.5822054 L264.274332,8.4382054 C264.208332,8.1082054 264.384332,7.9542054 264.582332,7.8882054 C264.758332,7.8222054 266.166332,7.4702054 267.574332,7.4702054 C270.324332,7.4702054 270.962332,8.9002054 270.962332,11.2982054 L270.962332,16.0722054 C270.962332,16.2922054 270.764332,16.4902054 270.544332,16.4902054 L269.752332,16.4902054 C269.598332,16.4902054 269.488332,16.4242054 269.378332,16.1822054 L269.114332,15.5882054 C268.608332,16.0502054 267.794332,16.7102054 266.430332,16.7102054 C264.670332,16.7102054 263.460332,15.5662054 263.460332,13.6962054 Z M265.880332,13.6962054 C265.880332,14.3562054 266.342332,14.8402054 267.024332,14.8402054 C267.728332,14.8402054 268.410332,14.2462054 268.542332,13.9822054 L268.542332,12.7722054 C268.542332,12.7722054 267.948332,12.5082054 267.310332,12.5082054 C266.452332,12.5082054 265.880332,12.9922054 265.880332,13.6962054 Z M274.701123,16.0722054 L274.701123,8.1082054 C274.701123,7.8662054 274.899123,7.6902054 275.119123,7.6902054 L275.955123,7.6902054 C276.153123,7.6902054 276.285123,7.8002054 276.351123,7.9762054 L276.659123,8.8342054 C276.967123,8.3942054 277.781123,7.4702054 279.145123,7.4702054 C280.179123,7.4702054 281.103123,7.8002054 280.839123,8.3502054 L280.025123,9.7802054 C279.915123,9.9782054 279.695123,10.0662054 279.519123,9.9782054 C279.453123,9.9562054 279.123123,9.8462054 278.881123,9.8462054 C278.001123,9.8462054 277.473123,10.4402054 277.319123,10.7482054 L277.319123,16.0722054 C277.319123,16.3802054 277.121123,16.4902054 276.813123,16.4902054 L275.119123,16.4902054 C274.899123,16.4902054 274.701123,16.2922054 274.701123,16.0722054 Z M284.709915,4.5662054 C283.873915,4.5662054 283.213915,3.8842054 283.213915,3.0482054 C283.213915,2.2122054 283.873915,1.5302054 284.709915,1.5302054 C285.567915,1.5302054 286.249915,2.2122054 286.249915,3.0482054 C286.249915,3.8842054 285.567915,4.5662054 284.709915,4.5662054 Z M283.411915,16.0722054 L283.411915,8.1082054 C283.411915,7.8662054 283.609915,7.6902054 283.829915,7.6902054 L285.655915,7.6902054 C285.875915,7.6902054 286.073915,7.8662054 286.073915,8.1082054 L286.073915,16.0722054 C286.073915,16.2922054 285.875915,16.4902054 285.655915,16.4902054 L283.829915,16.4902054 C283.609915,16.4902054 283.411915,16.2922054 283.411915,16.0722054 Z M289.262706,12.0902054 C289.262706,9.6042054 291.132706,7.4702054 293.750706,7.4702054 C296.016706,7.4702054 297.864706,9.1862054 297.864706,11.5622054 C297.864706,11.7162054 297.842706,12.0022054 297.820706,12.1562054 C297.798706,12.3762054 297.600706,12.5302054 297.402706,12.5302054 L291.770706,12.5302054 C291.836706,13.4322054 292.606706,14.4442054 293.882706,14.4442054 C294.564706,14.4442054 295.202706,14.1802054 295.598706,13.8942054 C295.818706,13.7622054 296.016706,13.7182054 296.170706,13.8942054 L297.072706,14.9282054 C297.226706,15.0822054 297.270706,15.3242054 297.050706,15.5002054 C296.324706,16.1822054 295.202706,16.7102054 293.772706,16.7102054 C291.132706,16.7102054 289.262706,14.6202054 289.262706,12.0902054 Z M291.968706,10.9902054 L295.290706,10.9902054 C295.224706,10.1762054 294.520706,9.4942054 293.684706,9.4942054 C292.804706,9.4942054 292.078706,10.1542054 291.968706,10.9902054 Z M307.454289,13.8722054 L307.454289,10.0002054 L306.706289,10.0002054 C306.486289,10.0002054 306.310289,9.8022054 306.310289,9.5822054 L306.310289,8.1082054 C306.310289,7.8662054 306.486289,7.6902054 306.706289,7.6902054 L307.454289,7.6902054 L307.454289,5.2482054 C307.454289,5.0282054 307.652289,4.8302054 307.872289,4.8302054 L309.676289,4.8082054 C309.896289,4.8082054 310.072289,5.0062054 310.072289,5.2262054 L310.072289,7.6902054 L312.008289,7.6902054 C312.250289,7.6902054 312.426289,7.8662054 312.426289,8.1082054 L312.426289,9.5822054 C312.426289,9.8022054 312.250289,10.0002054 312.008289,10.0002054 L310.072289,10.0002054 L310.072289,13.5202054 C310.072289,14.1362054 310.402289,14.2242054 310.754289,14.2242054 C311.128289,14.2242054 311.590289,14.0702054 311.832289,13.9822054 C312.074289,13.8942054 312.250289,14.0042054 312.316289,14.2242054 L312.756289,15.6102054 C312.844289,15.8302054 312.734289,16.0502054 312.514289,16.1382054 C312.404289,16.2042054 310.974289,16.7102054 309.896289,16.7102054 C308.202289,16.7102054 307.454289,15.6542054 307.454289,13.8722054 Z M315.109081,12.0682054 C315.109081,9.5822054 317.133081,7.4702054 319.619081,7.4702054 C322.105081,7.4702054 324.129081,9.5822054 324.129081,12.0682054 C324.129081,14.5982054 322.105081,16.7102054 319.619081,16.7102054 C317.133081,16.7102054 315.109081,14.5982054 315.109081,12.0682054 Z M317.507081,12.0682054 C317.507081,13.3222054 318.431081,14.3342054 319.619081,14.3342054 C320.785081,14.3342054 321.731081,13.3222054 321.731081,12.0682054 C321.731081,10.8362054 320.785081,9.8462054 319.619081,9.8462054 C318.431081,9.8462054 317.507081,10.8362054 317.507081,12.0682054 Z"/>
  </g>
</svg>
