<svg xmlns="http://www.w3.org/2000/svg" width="444" height="152" viewBox="0 0 444 152">
  <defs>
    <filter id="scene_01_selection_02a-a" width="102.7%" height="108.6%" x="-1.3%" y="-3.1%" filterUnits="objectBoundingBox">
      <feOffset dy="2" in="SourceAlpha" result="shadowOffsetOuter1"/>
      <feGaussianBlur in="shadowOffsetOuter1" result="shadowBlurOuter1" stdDeviation="2"/>
      <feColorMatrix in="shadowBlurOuter1" result="shadowMatrixOuter1" values="0 0 0 0 0   0 0 0 0 0   0 0 0 0 0  0 0 0 0.5 0"/>
      <feMerge>
        <feMergeNode in="shadowMatrixOuter1"/>
        <feMergeNode in="SourceGraphic"/>
      </feMerge>
    </filter>
  </defs>
  <path fill="#CAE0DC" fill-rule="evenodd" d="M147.741175,44.243728 C147.741175,24.6360997 162.316757,8.67236699 180.362715,8.67236699 C193.810425,8.67236699 204.568593,20.8186854 204.568593,35.8280645 C204.568593,55.3489333 190.16653,71.1391472 171.947052,71.1391472 C158.586102,71.1391472 147.741175,59.1663477 147.741175,44.243728 Z M173.68224,57.2576405 C182.271423,57.2576405 190.340048,48.2346611 190.340048,37.4764934 C190.340048,29.3211082 185.481521,22.5538737 178.540768,22.5538737 C170.125104,22.5538737 161.969719,31.6636125 161.969719,42.4217802 C161.969719,50.490406 166.828246,57.2576405 173.68224,57.2576405 Z M215.582272,68.6231241 L223.650897,11.1883901 C223.737657,10.3207959 224.518491,9.53996116 225.386086,9.53996116 L244.473157,9.53996116 C253.149099,9.53996116 259.482537,17.5218275 259.482537,26.7183257 C259.482537,38.2573282 250.372798,48.2346611 239.094074,48.2346611 L231.979801,48.2346611 L229.116741,68.6231241 C229.029981,69.4907183 228.162387,70.2715531 227.381552,70.2715531 L216.796903,70.2715531 C215.929309,70.2715531 215.495512,69.4907183 215.582272,68.6231241 Z M233.801749,35.5677863 L240.048427,35.5677863 C243.085007,35.5677863 246.034827,32.0974096 246.034827,27.6726793 C246.034827,24.6360997 244.299639,22.2935955 241.957134,22.2935955 L235.623697,22.2935955 L233.801749,35.5677863 Z M267.546395,68.6231241 L275.615021,11.1883901 C275.70178,10.3207959 276.482615,9.53996116 277.26345,9.53996116 L309.97175,9.53996116 C310.839344,9.53996116 311.359901,10.3207959 311.273141,11.1883901 L309.884991,20.6451665 C309.798231,21.5127607 309.104156,22.2935955 308.236562,22.2935955 L287.58782,22.2935955 L286.026151,33.0517632 L302.857478,33.0517632 C303.638313,33.0517632 304.245628,33.8325979 304.158869,34.7001921 L302.770718,44.1569685 C302.5972,45.1113221 301.816365,45.8053975 301.03553,45.8053975 L284.290963,45.8053975 L282.642534,57.5179188 L303.291275,57.5179188 C304.158869,57.5179188 304.592666,58.2987535 304.505907,59.1663477 L303.204515,68.6231241 C303.117756,69.4907183 302.336921,70.2715531 301.469327,70.2715531 L268.761027,70.2715531 C267.893433,70.2715531 267.372876,69.4907183 267.546395,68.6231241 Z M319.510519,68.796643 L327.665904,10.2340365 C327.752663,9.36644233 328.620257,8.67236699 329.401092,8.67236699 L331.309799,8.67236699 L357.164106,42.161502 L357.250865,42.161502 L361.415317,11.1883901 C361.502076,10.3207959 362.196152,9.53996116 363.063746,9.53996116 L373.648395,9.53996116 C374.42923,9.53996116 375.123305,10.2340365 375.036545,11.0148713 L366.88116,69.5774777 C366.794401,70.4450719 366.013566,71.1391472 365.232731,71.1391472 L363.063746,71.1391472 L337.20944,36.6088993 L337.12268,36.6088993 L333.218506,68.6231241 C333.044988,69.4907183 332.350912,70.2715531 331.483318,70.2715531 L320.81191,70.2715531 C320.117834,70.2715531 319.423759,69.5774777 319.510519,68.796643 Z M50.3198839,149.623122 L56.8268401,103.293593 L46.2421913,103.293593 C45.3745971,103.293593 44.8540406,102.512759 44.9408,101.645164 L46.3289507,92.1883879 C46.4157101,91.3207938 47.1965449,90.539959 47.9773796,90.539959 L83.0281841,90.539959 C83.8957782,90.539959 84.4163347,91.3207938 84.3295753,92.1883879 L82.9414247,101.645164 C82.8546652,102.512759 82.1605899,103.293593 81.2929957,103.293593 L70.6215874,103.293593 L64.1146312,149.623122 C64.0278718,150.490716 63.1602776,151.271551 62.3794428,151.271551 L51.6212751,151.271551 C50.8404404,151.271551 50.2331245,150.490716 50.3198839,149.623122 Z M89.4436137,149.623122 L97.5122395,92.1883879 C97.5989989,91.3207938 98.4665931,90.539959 99.2474278,90.539959 L109.832077,90.539959 C110.699671,90.539959 111.220227,91.3207938 111.133468,92.1883879 L108.010129,114.051761 L128.311833,114.051761 L131.348412,92.1883879 C131.435172,91.3207938 132.216006,90.539959 133.0836,90.539959 L143.755009,90.539959 C144.535843,90.539959 145.143159,91.3207938 145.0564,92.1883879 L136.987774,149.623122 C136.901015,150.490716 136.033421,151.271551 135.252586,151.271551 L124.494418,151.271551 C123.626824,151.271551 123.193027,150.490716 123.279786,149.623122 L126.489885,126.805395 L106.274941,126.805395 L103.064842,149.623122 C102.891323,150.490716 102.197248,151.271551 101.329654,151.271551 L90.6582455,151.271551 C89.8774108,151.271551 89.3568543,150.490716 89.4436137,149.623122 Z M156.243598,149.623122 L164.312223,92.1883879 C164.398983,91.3207938 165.179817,90.539959 165.960652,90.539959 L198.668952,90.539959 C199.536547,90.539959 200.057103,91.3207938 199.970344,92.1883879 L198.582193,101.645164 C198.495434,102.512759 197.801358,103.293593 196.933764,103.293593 L176.285023,103.293593 L174.723353,114.051761 L191.55468,114.051761 C192.335515,114.051761 192.942831,114.832596 192.856071,115.70019 L191.467921,125.156966 C191.294402,126.11132 190.513567,126.805395 189.732732,126.805395 L172.988165,126.805395 L171.339736,138.517917 L191.988477,138.517917 C192.856071,138.517917 193.289869,139.298751 193.203109,140.166346 L191.901718,149.623122 C191.814958,150.490716 191.034124,151.271551 190.16653,151.271551 L157.458229,151.271551 C156.590635,151.271551 156.070079,150.490716 156.243598,149.623122 Z M232.408831,149.623122 L240.477457,92.1883879 C240.564216,91.3207938 241.345051,90.539959 242.125886,90.539959 L261.473236,90.539959 C275.181224,90.539959 284.985038,103.467112 284.985038,116.914822 C284.985038,135.741615 271.27705,151.271551 252.970813,151.271551 L233.536704,151.271551 C232.755869,151.271551 232.235312,150.490716 232.408831,149.623122 Z M247.591729,138.431157 L254.098685,138.431157 C263.034905,138.431157 270.496215,129.321418 270.496215,117.955935 C270.496215,109.80055 266.071485,103.293593 259.043972,103.293593 L252.537016,103.293593 L247.591729,138.431157 Z M295.738438,125.243726 C295.738438,105.636098 310.31402,89.6723648 328.359979,89.6723648 C341.807689,89.6723648 352.565856,101.818683 352.565856,116.828062 C352.565856,136.348931 338.163793,152.139145 319.944316,152.139145 C306.583365,152.139145 295.738438,140.166346 295.738438,125.243726 Z M321.679504,138.257638 C330.268686,138.257638 338.337312,129.234659 338.337312,118.476491 C338.337312,110.321106 333.478785,103.553872 326.538031,103.553872 C318.122368,103.553872 309.966983,112.66361 309.966983,123.421778 C309.966983,131.490404 314.82551,138.257638 321.679504,138.257638 Z M363.319257,125.243726 C363.319257,105.636098 377.894839,89.6723648 395.940798,89.6723648 C409.388507,89.6723648 420.146675,101.818683 420.146675,116.828062 C420.146675,136.348931 405.744612,152.139145 387.525134,152.139145 C374.164184,152.139145 363.319257,140.166346 363.319257,125.243726 Z M389.260323,138.257638 C397.849505,138.257638 405.918131,129.234659 405.918131,118.476491 C405.918131,110.321106 401.059603,103.553872 394.11885,103.553872 C385.703186,103.553872 377.547801,112.66361 377.547801,123.421778 C377.547801,131.490404 382.406329,138.257638 389.260323,138.257638 Z M431.160354,149.623122 L439.22898,92.1883879 C439.315739,91.3207938 440.096574,90.539959 440.877408,90.539959 L464.302451,90.539959 C473.41219,90.539959 479.572108,97.9145095 479.572108,106.850729 C479.572108,116.133987 474.279784,123.942335 465.343564,126.718636 L472.891633,148.755528 C473.32543,149.8834 472.544596,151.271551 471.243204,151.271551 L460.05124,151.271551 C459.443924,151.271551 458.923367,150.924513 458.836608,150.490716 L451.722336,127.499471 L447.904921,127.499471 L444.781582,149.623122 C444.694823,150.490716 443.913988,151.271551 443.133153,151.271551 L432.374986,151.271551 C431.507391,151.271551 430.986835,150.490716 431.160354,149.623122 Z M449.379831,116.481025 L458.923367,116.481025 C463.00106,116.481025 465.95088,112.66361 465.95088,108.499158 C465.95088,105.462579 464.38921,102.946556 461.265871,102.946556 L451.288538,102.946556 L449.379831,116.481025 Z" filter="url(#scene_01_selection_02a-a)" transform="translate(-40.25 -6.05)"/>
</svg>
