<svg xmlns="http://www.w3.org/2000/svg" width="257" height="291" viewBox="0 0 257 291">
  <g fill="none" fill-rule="evenodd" transform="translate(-87.2 -14.307)">
    <path fill="#DEDEDE" d="M151.134125,127.821979 L147.117486,91.8328912 C147.010375,91.0831185 147.492372,90.5475666 148.135034,90.5475666 L154.615212,90.5475666 C154.990099,90.5475666 155.364985,90.9224529 155.364985,91.2973393 L156.382534,109.452549 L156.596754,109.452549 L166.55802,90.6011218 C166.718685,90.2797907 167.040016,90.0120147 167.468458,90.0120147 L168.325341,90.0120147 C168.700227,90.0120147 169.021558,90.2797907 169.075113,90.6011218 L173.734415,109.452549 L173.895081,109.452549 L180.107483,91.2973393 C180.268148,90.9224529 180.69659,90.5475666 181.071476,90.5475666 L187.498099,90.5475666 C188.194316,90.5475666 188.515647,91.0831185 188.194316,91.8328912 L174.055746,127.821979 C173.895081,128.25042 173.466639,128.571751 173.091753,128.571751 L172.288425,128.571751 C171.967094,128.571751 171.645763,128.303975 171.538652,127.982644 L165.754692,106.078572 L165.540471,106.078572 L153.597664,127.982644 C153.383443,128.303975 153.008557,128.571751 152.687225,128.571751 L151.937453,128.571751 C151.509011,128.571751 151.18768,128.25042 151.134125,127.821979 Z M191.993792,127.018651 L196.974425,91.5651152 C197.02798,91.0295633 197.563532,90.5475666 198.045528,90.5475666 L204.579261,90.5475666 C205.114813,90.5475666 205.436144,91.0295633 205.382589,91.5651152 L203.454602,105.061023 L215.986517,105.061023 L217.860948,91.5651152 C217.914504,91.0295633 218.3965,90.5475666 218.932052,90.5475666 L225.519341,90.5475666 C226.001337,90.5475666 226.376224,91.0295633 226.322668,91.5651152 L221.342036,127.018651 C221.288481,127.554203 220.752929,128.036199 220.270932,128.036199 L213.630088,128.036199 C213.094537,128.036199 212.826761,127.554203 212.880316,127.018651 L214.861858,112.933636 L202.383499,112.933636 L200.401957,127.018651 C200.294846,127.554203 199.866405,128.036199 199.330853,128.036199 L192.743565,128.036199 C192.261568,128.036199 191.940237,127.554203 191.993792,127.018651 Z M229.372371,128.036199 C228.622599,128.036199 228.354823,127.339982 228.729709,126.643764 L249.027126,90.6011218 C249.241347,90.2797907 249.509123,90.0120147 249.937564,90.0120147 L250.419561,90.0120147 C250.794447,90.0120147 251.062223,90.2797907 251.169334,90.6011218 L261.237709,126.643764 C261.45193,127.339982 260.969933,128.036199 260.220161,128.036199 L254.168424,128.036199 C253.204431,128.036199 252.668879,127.768423 252.454658,126.69732 L251.54422,122.46646 L239.708523,122.46646 L237.619871,126.750875 C237.29854,127.447092 236.602322,128.036199 235.477663,128.036199 L229.372371,128.036199 Z M243.510942,115.182954 L249.509123,115.182954 L247.848912,106.239237 L247.795357,106.239237 L243.510942,115.182954 Z M271.035366,127.018651 L275.052005,98.4201795 L268.518272,98.4201795 C267.98272,98.4201795 267.661389,97.9381828 267.714944,97.4026309 L268.571827,91.5651152 C268.625383,91.0295633 269.107379,90.5475666 269.589376,90.5475666 L291.225673,90.5475666 C291.761225,90.5475666 292.082556,91.0295633 292.029001,91.5651152 L291.172117,97.4026309 C291.118562,97.9381828 290.690121,98.4201795 290.154569,98.4201795 L283.567281,98.4201795 L279.550641,127.018651 C279.497086,127.554203 278.961534,128.036199 278.479538,128.036199 L271.838694,128.036199 C271.356697,128.036199 270.981811,127.554203 271.035366,127.018651 Z M109.149799,183.12319 C108.721358,182.587638 108.828468,182.105642 109.149799,181.623645 L112.041779,177.285675 C112.523776,176.589457 113.380659,176.696568 113.755545,176.964344 C114.451763,177.499895 117.075967,179.320772 119.967947,179.320772 C121.949489,179.320772 123.449035,177.821227 123.39548,176.053905 C123.341924,174.125919 122.16371,172.679928 119.860837,171.180383 C116.48686,168.931065 111.881114,165.557088 111.881114,159.987348 C111.881114,154.203388 115.897753,148.687203 124.573694,148.687203 C129.661437,148.687203 133.30319,151.418518 134.74918,152.596732 C135.284732,153.025174 135.498952,153.935612 135.070511,154.417609 L131.696534,158.541358 C131.268092,159.07691 130.357654,159.130465 129.982768,158.809134 C129.607882,158.487803 126.823012,156.399151 123.984587,156.399151 C122.16371,156.399151 120.557054,157.52381 120.557054,159.130465 C120.557054,161.004897 121.735269,162.022446 124.94858,163.950432 C127.62634,165.557088 132.874748,168.98462 132.874748,175.250578 C132.874748,181.409424 128.590333,187.24694 119.485951,187.24694 C113.809101,187.24694 110.167348,184.408515 109.149799,183.12319 Z M140.958639,185.693839 L145.939272,150.240304 C145.992827,149.704752 146.528379,149.222755 147.010375,149.222755 L153.544109,149.222755 C154.07966,149.222755 154.400992,149.704752 154.347436,150.240304 L152.41945,163.736212 L164.951364,163.736212 L166.825796,150.240304 C166.879351,149.704752 167.361347,149.222755 167.896899,149.222755 L174.484188,149.222755 C174.966184,149.222755 175.341071,149.704752 175.287515,150.240304 L170.306883,185.693839 C170.253328,186.229391 169.717776,186.711388 169.235779,186.711388 L162.594936,186.711388 C162.059384,186.711388 161.791608,186.229391 161.845163,185.693839 L163.826705,171.608825 L151.348346,171.608825 L149.366804,185.693839 C149.259693,186.229391 148.831252,186.711388 148.2957,186.711388 L141.708412,186.711388 C141.226415,186.711388 140.905084,186.229391 140.958639,185.693839 Z M182.032527,170.644831 C182.032527,158.541358 191.029798,148.687203 202.169278,148.687203 C210.470332,148.687203 217.111176,156.18493 217.111176,165.449978 C217.111176,177.499895 208.221014,187.24694 196.974425,187.24694 C188.726925,187.24694 182.032527,179.856324 182.032527,170.644831 Z M198.045528,178.67811 C203.347492,178.67811 208.328125,173.10837 208.328125,166.467526 C208.328125,161.433339 205.329034,157.256034 201.044619,157.256034 C195.849766,157.256034 190.815578,162.879329 190.815578,169.520172 C190.815578,174.500805 193.814668,178.67811 198.045528,178.67811 Z M225.248622,172.787039 L228.354823,150.240304 C228.408378,149.704752 228.890375,149.222755 229.372371,149.222755 L236.173881,149.222755 C236.655877,149.222755 237.030764,149.704752 236.977208,150.240304 L233.924563,172.358597 C233.389011,176.107461 235.263442,178.67811 238.208978,178.67811 C241.422289,178.67811 244.046493,176.107461 244.582045,172.358597 L247.634691,150.240304 C247.688246,149.704752 248.116688,149.222755 248.65224,149.222755 L255.400194,149.222755 C255.88219,149.222755 256.257077,149.704752 256.203521,150.240304 L253.09732,172.787039 C251.865551,181.46298 246.028035,187.24694 237.137874,187.24694 C229.961479,187.24694 224.070408,180.927428 225.248622,172.787039 Z M262.627201,185.693839 L267.607834,150.240304 C267.661389,149.704752 268.143386,149.222755 268.678938,149.222755 L275.319781,149.222755 C275.801778,149.222755 276.123109,149.704752 276.069554,150.240304 L272.052915,178.838775 L282.978173,178.838775 C283.513725,178.838775 283.781501,179.320772 283.727946,179.856324 L282.924618,185.693839 C282.871063,186.229391 282.389066,186.711388 281.853515,186.711388 L263.430529,186.711388 C262.894977,186.711388 262.573646,186.229391 262.627201,185.693839 Z M290.794288,185.693839 L295.774921,150.240304 C295.828476,149.704752 296.310473,149.222755 296.79247,149.222755 L308.735277,149.222755 C317.196997,149.222755 323.248733,157.202479 323.248733,165.503533 C323.248733,177.125009 314.787013,186.711388 303.486868,186.711388 L291.490506,186.711388 C291.008509,186.711388 290.687178,186.229391 290.794288,185.693839 Z M300.166447,178.78522 L304.183086,178.78522 C309.69927,178.78522 314.305017,173.161925 314.305017,166.146195 C314.305017,161.112007 311.573702,157.095368 307.235732,157.095368 L303.219092,157.095368 L300.166447,178.78522 Z M88.6143266,245.386577 C88.0787748,245.386577 87.6503332,244.90458 87.864554,244.208363 L98.1471504,208.219275 C98.307816,207.737278 98.5755919,207.362392 99.164699,207.362392 L99.9144717,207.362392 C100.235803,207.362392 100.557134,207.576613 100.664244,207.897944 L108.536857,231.033786 L108.643968,231.033786 L123.853641,207.897944 C124.067862,207.576613 124.282083,207.362392 124.76408,207.362392 L125.567408,207.362392 C125.942294,207.362392 126.263625,207.737278 126.263625,208.219275 L126.531401,244.208363 C126.531401,244.90458 125.942294,245.386577 125.406742,245.386577 L118.819454,245.386577 C118.391012,245.386577 118.016126,244.958135 118.016126,244.529694 L118.605233,227.98114 L118.498122,227.98114 L108.269081,245.333022 C108.05486,245.654353 107.733529,245.922129 107.358643,245.922129 L106.50176,245.922129 C106.126874,245.922129 105.859098,245.654353 105.751987,245.333022 L100.342913,227.98114 L100.235803,227.98114 L96.2727188,244.529694 C96.1656084,244.958135 95.7907221,245.386577 95.201615,245.386577 L88.6143266,245.386577 Z M132.419529,245.386577 C131.669756,245.386577 131.40198,244.690359 131.776867,243.994142 L152.074284,207.951499 C152.288504,207.630168 152.55628,207.362392 152.984722,207.362392 L153.466719,207.362392 C153.841605,207.362392 154.109381,207.630168 154.216491,207.951499 L164.284867,243.994142 C164.499088,244.690359 164.017091,245.386577 163.267318,245.386577 L157.215582,245.386577 C156.251588,245.386577 155.716036,245.118801 155.501816,244.047697 L154.591377,239.816837 L142.755681,239.816837 L140.667028,244.101252 C140.345697,244.79747 139.64948,245.386577 138.524821,245.386577 L132.419529,245.386577 Z M146.558099,232.533331 L152.55628,232.533331 L150.896069,223.589615 L150.842514,223.589615 L146.558099,232.533331 Z M171.404764,244.369028 L176.385397,208.915493 C176.438952,208.379941 176.920949,207.897944 177.402945,207.897944 L191.862847,207.897944 C197.486142,207.897944 201.28856,212.450135 201.28856,217.96632 C201.28856,223.696725 198.021693,228.516692 192.505509,230.230458 L197.16481,243.833476 C197.432586,244.529694 196.95059,245.386577 196.147262,245.386577 L189.238642,245.386577 C188.863756,245.386577 188.542425,245.172356 188.48887,244.90458 L184.097344,230.712455 L181.740916,230.712455 L179.812929,244.369028 C179.759374,244.90458 179.277377,245.386577 178.79538,245.386577 L172.154537,245.386577 C171.618985,245.386577 171.297654,244.90458 171.404764,244.369028 Z M182.651354,223.910946 L188.542425,223.910946 C191.059519,223.910946 192.880395,221.554517 192.880395,218.983868 C192.880395,217.109437 191.916402,215.556336 189.988415,215.556336 L183.829568,215.556336 L182.651354,223.910946 Z M212.639317,217.484323 C210.550665,217.484323 209.05112,215.824112 209.05112,213.789015 C209.05112,211.164811 211.300438,208.969048 213.817532,208.969048 C215.906184,208.969048 217.459285,210.682814 217.459285,212.717911 C217.459285,215.395671 215.102856,217.484323 212.639317,217.484323 Z M204.873815,244.369028 L207.60513,224.98205 C207.71224,224.392942 208.194237,223.964501 208.676233,223.964501 L214.83508,223.964501 C215.317077,223.964501 215.691963,224.392942 215.638408,224.98205 L212.907093,244.369028 C212.853538,244.90458 212.317986,245.386577 211.83599,245.386577 L205.677143,245.386577 C205.195146,245.386577 204.82026,244.90458 204.873815,244.369028 Z M222.49053,244.369028 L227.471162,208.915493 C227.524717,208.379941 228.006714,207.897944 228.488711,207.897944 L248.679017,207.897944 C249.214569,207.897944 249.5359,208.379941 249.482345,208.915493 L248.625462,214.753008 C248.571907,215.28856 248.143465,215.770557 247.607914,215.770557 L234.861778,215.770557 L233.897785,222.4114 L244.287492,222.4114 C244.769488,222.4114 245.144375,222.893397 245.09082,223.428949 L244.233937,229.266465 C244.126826,229.855572 243.644829,230.284013 243.162833,230.284013 L232.826681,230.284013 L231.809133,237.513964 L244.555268,237.513964 C245.09082,237.513964 245.358596,237.995961 245.30504,238.531513 L244.501713,244.369028 C244.448157,244.90458 243.966161,245.386577 243.430609,245.386577 L223.240302,245.386577 C222.70475,245.386577 222.383419,244.90458 222.49053,244.369028 Z M269.5061,244.369028 L274.486733,208.915493 C274.540288,208.379941 275.022285,207.897944 275.504282,207.897944 L287.447089,207.897944 C295.908809,207.897944 301.960545,215.877667 301.960545,224.178722 C301.960545,235.800198 293.498825,245.386577 282.19868,245.386577 L270.202318,245.386577 C269.720321,245.386577 269.39899,244.90458 269.5061,244.369028 Z M278.878259,237.460409 L282.894898,237.460409 C288.411082,237.460409 293.016829,231.837114 293.016829,224.821384 C293.016829,219.787196 290.285514,215.770557 285.947544,215.770557 L281.930904,215.770557 L278.878259,237.460409 Z M308.598446,229.32002 C308.598446,217.216547 317.595718,207.362392 328.735197,207.362392 C337.036252,207.362392 343.677095,214.860119 343.677095,224.125167 C343.677095,236.175084 334.786934,245.922129 323.540344,245.922129 C315.292845,245.922129 308.598446,238.531513 308.598446,229.32002 Z M324.611448,237.353298 C329.913412,237.353298 334.894044,231.783559 334.894044,225.142715 C334.894044,220.108527 331.894954,215.931223 327.610538,215.931223 C322.415685,215.931223 317.381497,221.554517 317.381497,228.195361 C317.381497,233.175994 320.380588,237.353298 324.611448,237.353298 Z M138.817903,303.151327 L143.852091,267.001574 C143.905646,266.466022 144.441198,266.037581 144.923194,266.037581 L146.101409,266.037581 L162.060855,286.709884 L162.11441,286.709884 L164.685059,267.590681 C164.738615,267.055129 165.167056,266.573133 165.702608,266.573133 L172.236341,266.573133 C172.718338,266.573133 173.146779,267.001574 173.093224,267.483571 L168.059036,303.633324 C168.005481,304.168876 167.523484,304.597317 167.041488,304.597317 L165.702608,304.597317 L149.743161,283.282352 L149.689606,283.282352 L147.279623,303.044217 C147.172512,303.579769 146.744071,304.061766 146.208519,304.061766 L139.621231,304.061766 C139.192789,304.061766 138.764348,303.633324 138.817903,303.151327 Z M179.998901,303.044217 L184.979533,267.590681 C185.033089,267.055129 185.515085,266.573133 185.997082,266.573133 L206.187389,266.573133 C206.72294,266.573133 207.044272,267.055129 206.990716,267.590681 L206.133833,273.428197 C206.080278,273.963749 205.651837,274.445746 205.116285,274.445746 L192.37015,274.445746 L191.406156,281.086589 L201.795863,281.086589 C202.27786,281.086589 202.652746,281.568586 202.599191,282.104138 L201.742308,287.941653 C201.635197,288.530761 201.153201,288.959202 200.671204,288.959202 L190.335052,288.959202 L189.317504,296.189153 L202.063639,296.189153 C202.599191,296.189153 202.866967,296.671149 202.813412,297.206701 L202.010084,303.044217 C201.956529,303.579769 201.474532,304.061766 200.93898,304.061766 L180.748673,304.061766 C180.213122,304.061766 179.89179,303.579769 179.998901,303.044217 Z M209.611978,304.061766 C208.862205,304.061766 208.487319,303.258438 209.076426,302.56222 L221.715451,284.567677 L214.271279,268.072678 C214.003503,267.376461 214.4855,266.573133 215.342383,266.573133 L223.05433,266.573133 C223.322106,266.573133 223.643438,266.787354 223.750548,267.055129 L227.499411,277.284171 L227.552966,277.284171 L234.140255,267.055129 C234.354475,266.680243 234.729362,266.573133 234.997138,266.573133 L243.298192,266.573133 C244.10152,266.573133 244.476406,267.376461 243.887299,268.072678 L231.676716,285.103228 L239.388663,302.56222 C239.76355,303.311993 239.174443,304.061766 238.42467,304.061766 L230.980499,304.061766 C230.552057,304.061766 230.284281,303.740434 230.230726,303.579769 L225.892756,292.493845 L225.785645,292.493845 L218.502139,303.579769 C218.287919,303.9011 217.859477,304.061766 217.591701,304.061766 L209.611978,304.061766 Z M251.810525,303.044217 L255.827164,274.445746 L249.293431,274.445746 C248.757879,274.445746 248.436548,273.963749 248.490103,273.428197 L249.346986,267.590681 C249.400541,267.055129 249.882538,266.573133 250.364534,266.573133 L272.000831,266.573133 C272.536383,266.573133 272.857714,267.055129 272.804159,267.590681 L271.947276,273.428197 C271.893721,273.963749 271.465279,274.445746 270.929727,274.445746 L264.342439,274.445746 L260.3258,303.044217 C260.272244,303.579769 259.736693,304.061766 259.254696,304.061766 L252.613852,304.061766 C252.131856,304.061766 251.756969,303.579769 251.810525,303.044217 Z M280.88805,289.494754 C280.406053,289.494754 280.031167,289.066312 280.138277,288.477205 L280.459608,286.227887 C281.155826,281.461476 288.385776,279.212158 288.385776,275.302629 C288.385776,274.070859 287.421783,273.160421 286.029348,273.160421 C284.047806,273.160421 282.280485,274.445746 281.370046,275.249074 C280.88805,275.677515 280.352498,275.784625 279.977611,275.356184 L277.085631,271.875097 C276.710745,271.50021 276.817855,270.803993 277.246297,270.429106 C278.317401,269.411558 281.637822,266.037581 287.90378,266.037581 C292.455971,266.037581 296.901051,269.358003 296.901051,274.124415 C296.901051,280.818813 288.599997,284.139235 288.118,287.138326 L287.90378,288.477205 C287.796669,289.066312 287.368228,289.494754 286.832676,289.494754 L280.88805,289.494754 Z M277.514073,300.152237 C277.514073,297.099591 280.298943,294.421831 283.137368,294.421831 C285.654462,294.421831 287.528893,296.510484 287.528893,298.974023 C287.528893,302.026668 284.690468,304.597317 281.744933,304.597317 C279.334949,304.597317 277.514073,302.56222 277.514073,300.152237 Z"/>
    <path stroke="#9F9F9F" stroke-linecap="square" stroke-width="4" d="M198.932491,56 L233.467479,56"/>
    <path fill="#FFF" d="M154.904054,22.9480067 C154.904054,22.9480067 154.904054,22.9480067 154.904054,22.9480067 C154.904054,22.9480067 154.904054,22.9480067 154.904054,22.9480067 Z M154.904054,22.9480067 C154.90375,22.9476182 154.443254,22.3573273 154.443254,21.508007 C154.443254,20.1688071 155.379254,18.9736072 156.876854,18.9736072 L159.310453,18.9736072 C159.468853,18.9736072 159.584053,19.0888072 159.584053,19.2472071 L159.584053,19.4920071 C159.584053,19.5928071 159.526453,19.7224071 159.425653,19.7368071 L158.648054,19.8952071 C158.648054,19.8952071 159.296053,20.3704071 159.296053,21.508007 C159.296053,22.8184069 158.360054,23.9560069 156.876854,23.9560069 C155.955254,23.9560069 155.508854,23.5960069 155.508854,23.5960069 C155.508854,23.5960069 154.875254,23.8840069 154.875254,24.4600068 C154.875254,24.8200068 155.134454,25.1656068 155.667254,25.1656068 L157.740854,25.1656068 C158.950454,25.1656068 159.900853,25.7560068 159.900853,27.0088067 C159.900853,28.2040066 158.662454,29.3416065 156.920054,29.3416065 C154.990454,29.3416065 154.155254,28.3048066 154.155254,27.3544067 C154.155254,26.4904067 154.846454,26.1016067 154.990454,26.0152067 L154.990454,25.9720067 C154.616054,25.8712068 153.939254,25.4968068 153.939254,24.6040068 C153.939254,23.509727 154.903842,22.9481302 154.904054,22.9480069 L154.904054,22.9480067 Z M156.891254,23.0920069 C157.755254,23.0920069 158.331254,22.429607 158.331254,21.479207 C158.331254,20.5288071 157.755254,19.8664071 156.891254,19.8664071 C156.012854,19.8664071 155.379254,20.5288071 155.379254,21.479207 C155.379254,22.429607 156.012854,23.0920069 156.891254,23.0920069 Z M155.177654,27.2104067 C155.177654,27.9016066 155.926454,28.4056066 156.905654,28.4056066 C157.856054,28.4056066 158.835254,27.8728066 158.835254,27.0376067 C158.835254,26.8504067 158.748854,26.1016067 157.740854,26.1016067 L156.142454,26.1016067 C156.142454,26.1016067 155.177654,26.3608067 155.177654,27.2104067 Z M161.832253,21.997607 C161.832253,20.3704071 162.912253,18.9736072 164.654653,18.9736072 C166.166653,18.9736072 167.261053,20.0968071 167.261053,21.608807 C167.261053,21.709607 167.246653,21.896807 167.232253,21.997607 C167.217853,22.141607 167.102653,22.242407 166.973053,22.242407 L162.825853,22.242407 C162.883453,23.2072069 163.733053,24.1144069 164.755453,24.1144069 C165.360253,24.1144069 165.849853,23.8840069 166.181053,23.6824069 C166.382653,23.5672069 166.469053,23.4952069 166.584253,23.6536069 C166.670653,23.7688069 166.742653,23.8696069 166.829053,23.9848069 C166.929853,24.1144069 166.987453,24.2008069 166.771453,24.3592068 C166.425853,24.6328068 165.648253,25.0216068 164.654653,25.0216068 C162.912253,25.0216068 161.832253,23.6536069 161.832253,21.997607 Z M162.840253,21.436007 L166.267453,21.436007 C166.224253,20.6008071 165.533053,19.8520071 164.654653,19.8520071 C163.689853,19.8520071 162.941053,20.5432071 162.840253,21.436007 Z M170.330053,23.4376069 L170.330053,19.9816071 L169.595653,19.9816071 C169.437253,19.9816071 169.322053,19.8520071 169.322053,19.7080071 L169.322053,19.3912071 C169.322053,19.2328071 169.437253,19.1176072 169.595653,19.1176072 L170.330053,19.1176072 L170.330053,17.5192072 C170.330053,17.3752073 170.459653,17.2456073 170.603653,17.2456073 L171.064453,17.2168073 C171.208453,17.2168073 171.323653,17.3464073 171.323653,17.4904073 L171.323653,19.1176072 L172.994053,19.1176072 C173.152453,19.1176072 173.267653,19.2328071 173.267653,19.3912071 L173.267653,19.7080071 C173.267653,19.8520071 173.152453,19.9816071 172.994053,19.9816071 L171.323653,19.9816071 L171.323653,23.3512069 C171.323653,23.9272069 171.467653,24.0424069 171.798853,24.0424069 C172.158853,24.0424069 172.662853,23.8264069 172.850053,23.7256069 C173.066053,23.6104069 173.123653,23.6968069 173.195653,23.8120069 L173.411653,24.1720069 C173.512453,24.3448068 173.469253,24.4312068 173.310853,24.5320068 C173.109253,24.6616068 172.331653,25.0216068 171.654853,25.0216068 C170.502853,25.0216068 170.330053,24.3304068 170.330053,23.4376069 Z M180.327253,24.6040068 L180.327253,19.3912071 C180.327253,19.2472071 180.456853,19.1176072 180.600853,19.1176072 L180.874453,19.1176072 C180.989653,19.1176072 181.090453,19.1896071 181.119253,19.3192071 L181.234453,19.7368071 C181.234453,19.7368071 181.767253,18.9736072 182.962452,18.9736072 C183.394452,18.9736072 184.114452,19.0456072 183.970452,19.4488071 L183.797652,19.9384071 C183.725652,20.1256071 183.596052,20.1256071 183.452052,20.0680071 C183.322452,20.0104071 183.106452,19.9528071 182.890452,19.9528071 C181.796053,19.9528071 181.320853,20.7592071 181.320853,20.7592071 L181.320853,24.6040068 C181.320853,24.7480068 181.191253,24.8776068 181.047253,24.8776068 L180.600853,24.8776068 C180.456853,24.8776068 180.327253,24.7480068 180.327253,24.6040068 Z M185.801052,21.997607 C185.801052,20.3704071 186.881052,18.9736072 188.623452,18.9736072 C190.135452,18.9736072 191.229852,20.0968071 191.229852,21.608807 C191.229852,21.709607 191.215452,21.896807 191.201052,21.997607 C191.186652,22.141607 191.071452,22.242407 190.941852,22.242407 L186.794652,22.242407 C186.852252,23.2072069 187.701852,24.1144069 188.724252,24.1144069 C189.329052,24.1144069 189.818652,23.8840069 190.149852,23.6824069 C190.351452,23.5672069 190.437852,23.4952069 190.553052,23.6536069 C190.639452,23.7688069 190.711452,23.8696069 190.797852,23.9848069 C190.898652,24.1144069 190.956252,24.2008069 190.740252,24.3592068 C190.394652,24.6328068 189.617052,25.0216068 188.623452,25.0216068 C186.881052,25.0216068 185.801052,23.6536069 185.801052,21.997607 Z M186.809052,21.436007 L190.236252,21.436007 C190.193052,20.6008071 189.501852,19.8520071 188.623452,19.8520071 C187.658652,19.8520071 186.909852,20.5432071 186.809052,21.436007 Z M193.506852,23.1352069 C193.506852,22.040807 194.327652,21.220007 195.810852,21.220007 C196.430052,21.220007 197.034852,21.407207 197.034852,21.407207 C197.049252,20.3416071 196.919652,19.8520071 196.098852,19.8520071 C195.306852,19.8520071 194.630052,20.0680071 194.370852,20.1688071 C194.226852,20.2264071 194.140452,20.1544071 194.097252,20.0248071 L193.982052,19.6648071 C193.924452,19.4920071 194.010852,19.4056071 194.140452,19.3480071 C194.226852,19.3048071 195.062052,18.9736072 196.142052,18.9736072 C197.610852,18.9736072 197.970852,19.7224071 197.970852,21.407207 L197.970852,24.6040068 C197.970852,24.7480068 197.841252,24.8776068 197.697252,24.8776068 L197.423652,24.8776068 C197.265252,24.8776068 197.222052,24.7912068 197.178852,24.6616068 L197.063652,24.2728068 C196.761252,24.5752068 196.170852,25.0216068 195.278052,25.0216068 C194.270052,25.0216068 193.506852,24.2872068 193.506852,23.1352069 Z M194.428452,23.1352069 C194.428452,23.7112069 194.817252,24.1576069 195.436452,24.1576069 C196.156452,24.1576069 196.775652,23.7112069 197.020452,23.3512069 L197.020452,22.213607 C196.847652,22.112807 196.444452,21.983207 195.810852,21.983207 C195.004452,21.983207 194.428452,22.386407 194.428452,23.1352069 Z M200.679852,21.983207 C200.679852,20.2984071 201.716652,18.9736072 203.444652,18.9736072 C204.395051,18.9736072 204.985451,19.3480071 204.985451,19.3480071 L204.985451,15.0712074 C204.985451,14.9272074 205.115051,14.7976074 205.259051,14.7976074 L205.705451,14.7976074 C205.849451,14.7976074 205.979051,14.9272074 205.979051,15.0712074 L205.979051,24.6040068 C205.979051,24.7480068 205.849451,24.8776068 205.705451,24.8776068 L205.403051,24.8776068 C205.273451,24.8776068 205.187051,24.7768068 205.158251,24.6472068 L205.071851,24.2584068 C205.071851,24.2584068 204.380651,25.0216068 203.300652,25.0216068 C201.831852,25.0216068 200.679852,23.6392069 200.679852,21.983207 Z M201.687852,21.997607 C201.687852,23.1208069 202.350252,24.1144069 203.401452,24.1144069 C204.438251,24.1144069 204.971051,23.1640069 204.971051,23.1640069 L204.971051,20.2840071 C204.971051,20.2840071 204.366251,19.9384071 203.574252,19.9384071 C202.321452,19.9384071 201.687852,20.8456071 201.687852,21.997607 Z M211.020851,24.8632068 L208.342451,19.4344071 C208.256051,19.2472071 208.342451,19.1176072 208.558451,19.1176072 L209.192051,19.1176072 C209.307251,19.1176072 209.393651,19.1896071 209.436851,19.2760071 L211.568051,23.6824069 L211.582451,23.6824069 L213.598451,19.2760071 C213.641651,19.1896071 213.742451,19.1176072 213.843251,19.1176072 L214.390451,19.1176072 C214.606451,19.1176072 214.707251,19.2616071 214.606451,19.4488071 L210.185651,29.0248066 C210.142451,29.1112066 210.041651,29.1976066 209.940851,29.1976066 L209.408051,29.1976066 C209.192051,29.1976066 209.076851,29.0392066 209.177651,28.8376066 L211.020851,24.8632068 Z M221.694851,23.4376069 L221.694851,19.9816071 L220.960451,19.9816071 C220.802051,19.9816071 220.686851,19.8520071 220.686851,19.7080071 L220.686851,19.3912071 C220.686851,19.2328071 220.802051,19.1176072 220.960451,19.1176072 L221.694851,19.1176072 L221.694851,17.5192072 C221.694851,17.3752073 221.824451,17.2456073 221.968451,17.2456073 L222.429251,17.2168073 C222.573251,17.2168073 222.688451,17.3464073 222.688451,17.4904073 L222.688451,19.1176072 L224.358851,19.1176072 C224.517251,19.1176072 224.632451,19.2328071 224.632451,19.3912071 L224.632451,19.7080071 C224.632451,19.8520071 224.517251,19.9816071 224.358851,19.9816071 L222.688451,19.9816071 L222.688451,23.3512069 C222.688451,23.9272069 222.832451,24.0424069 223.163651,24.0424069 C223.523651,24.0424069 224.027651,23.8264069 224.214851,23.7256069 C224.430851,23.6104069 224.488451,23.6968069 224.560451,23.8120069 L224.776451,24.1720069 C224.877251,24.3448068 224.834051,24.4312068 224.675651,24.5320068 C224.474051,24.6616068 223.696451,25.0216068 223.019651,25.0216068 C221.867651,25.0216068 221.694851,24.3304068 221.694851,23.4376069 Z M226.952651,21.983207 C226.952651,20.3560071 228.21985,18.9736072 229.81825,18.9736072 C231.41665,18.9736072 232.68385,20.3560071 232.68385,21.983207 C232.68385,23.6392069 231.41665,25.0216068 229.81825,25.0216068 C228.21985,25.0216068 226.952651,23.6392069 226.952651,21.983207 Z M227.94625,21.983207 C227.94625,23.1496069 228.76705,24.0856069 229.81825,24.0856069 C230.86945,24.0856069 231.69025,23.1496069 231.69025,21.983207 C231.69025,20.8456071 230.86945,19.9240071 229.81825,19.9240071 C228.76705,19.9240071 227.94625,20.8456071 227.94625,21.983207 Z M239.34025,21.983207 C239.34025,20.2984071 240.37705,18.9736072 242.10505,18.9736072 C243.05545,18.9736072 243.64585,19.3480071 243.64585,19.3480071 L243.64585,15.0712074 C243.64585,14.9272074 243.77545,14.7976074 243.91945,14.7976074 L244.36585,14.7976074 C244.50985,14.7976074 244.63945,14.9272074 244.63945,15.0712074 L244.63945,24.6040068 C244.63945,24.7480068 244.50985,24.8776068 244.36585,24.8776068 L244.06345,24.8776068 C243.93385,24.8776068 243.84745,24.7768068 243.81865,24.6472068 L243.73225,24.2584068 C243.73225,24.2584068 243.04105,25.0216068 241.96105,25.0216068 C240.49225,25.0216068 239.34025,23.6392069 239.34025,21.983207 Z M240.34825,21.997607 C240.34825,23.1208069 241.01065,24.1144069 242.06185,24.1144069 C243.09865,24.1144069 243.63145,23.1640069 243.63145,23.1640069 L243.63145,20.2840071 C243.63145,20.2840071 243.02665,19.9384071 242.23465,19.9384071 C240.98185,19.9384071 240.34825,20.8456071 240.34825,21.997607 Z M247.40605,21.997607 C247.40605,20.3704071 248.48605,18.9736072 250.228449,18.9736072 C251.740449,18.9736072 252.834849,20.0968071 252.834849,21.608807 C252.834849,21.709607 252.820449,21.896807 252.806049,21.997607 C252.791649,22.141607 252.676449,22.242407 252.546849,22.242407 L248.39965,22.242407 C248.45725,23.2072069 249.306849,24.1144069 250.329249,24.1144069 C250.934049,24.1144069 251.423649,23.8840069 251.754849,23.6824069 C251.956449,23.5672069 252.042849,23.4952069 252.158049,23.6536069 C252.244449,23.7688069 252.316449,23.8696069 252.402849,23.9848069 C252.503649,24.1144069 252.561249,24.2008069 252.345249,24.3592068 C251.999649,24.6328068 251.222049,25.0216068 250.228449,25.0216068 C248.48605,25.0216068 247.40605,23.6536069 247.40605,21.997607 Z M248.41405,21.436007 L251.841249,21.436007 C251.798049,20.6008071 251.106849,19.8520071 250.228449,19.8520071 C249.263649,19.8520071 248.51485,20.5432071 248.41405,21.436007 Z M255.097449,22.012007 C255.097449,20.3128071 256.494249,18.9736072 258.063849,18.9736072 C258.927849,18.9736072 259.604649,19.3192071 260.123049,19.9816071 C260.223849,20.1112071 260.195049,20.2840071 260.065449,20.3848071 L259.791849,20.6152071 C259.575849,20.8168071 259.503849,20.6728071 259.374249,20.5576071 C259.086249,20.2264071 258.611049,19.9528071 258.049449,19.9528071 C256.969449,19.9528071 256.134249,20.8456071 256.134249,21.997607 C256.134249,23.1496069 256.955049,24.0712069 258.035049,24.0712069 C258.899049,24.0712069 259.230249,23.6392069 259.561449,23.3224069 C259.734249,23.1496069 259.835049,23.1784069 259.993449,23.2936069 L260.151849,23.4088069 C260.295849,23.5096069 260.339049,23.6680069 260.252649,23.8120069 C259.820649,24.5032068 259.028649,25.0216068 258.049449,25.0216068 C256.451049,25.0216068 255.097449,23.7400069 255.097449,22.012007 Z M263.480049,16.4536073 C263.105649,16.4536073 262.803249,16.1512073 262.803249,15.7768074 C262.803249,15.3880074 263.105649,15.0856074 263.480049,15.0856074 C263.868849,15.0856074 264.171249,15.3880074 264.171249,15.7768074 C264.171249,16.1512073 263.868849,16.4536073 263.480049,16.4536073 Z M263.004849,24.6040068 L263.004849,19.3912071 C263.004849,19.2472071 263.134449,19.1176072 263.278449,19.1176072 L263.724849,19.1176072 C263.868849,19.1176072 263.998449,19.2472071 263.998449,19.3912071 L263.998449,24.6040068 C263.998449,24.7480068 263.868849,24.8776068 263.724849,24.8776068 L263.278449,24.8776068 C263.134449,24.8776068 263.004849,24.7480068 263.004849,24.6040068 Z M266.750649,21.983207 C266.750649,20.2984071 267.787449,18.9736072 269.515449,18.9736072 C270.465848,18.9736072 271.056248,19.3480071 271.056248,19.3480071 L271.056248,15.0712074 C271.056248,14.9272074 271.185848,14.7976074 271.329848,14.7976074 L271.776248,14.7976074 C271.920248,14.7976074 272.049848,14.9272074 272.049848,15.0712074 L272.049848,24.6040068 C272.049848,24.7480068 271.920248,24.8776068 271.776248,24.8776068 L271.473848,24.8776068 C271.344248,24.8776068 271.257848,24.7768068 271.229048,24.6472068 L271.142648,24.2584068 C271.142648,24.2584068 270.451448,25.0216068 269.371449,25.0216068 C267.902649,25.0216068 266.750649,23.6392069 266.750649,21.983207 Z M267.758649,21.997607 C267.758649,23.1208069 268.421049,24.1144069 269.472249,24.1144069 C270.509048,24.1144069 271.041848,23.1640069 271.041848,23.1640069 L271.041848,20.2840071 C271.041848,20.2840071 270.437048,19.9384071 269.645049,19.9384071 C268.392249,19.9384071 267.758649,20.8456071 267.758649,21.997607 Z M274.816448,21.997607 C274.816448,20.3704071 275.896448,18.9736072 277.638848,18.9736072 C279.150848,18.9736072 280.245248,20.0968071 280.245248,21.608807 C280.245248,21.709607 280.230848,21.896807 280.216448,21.997607 C280.202048,22.141607 280.086848,22.242407 279.957248,22.242407 L275.810048,22.242407 C275.867648,23.2072069 276.717248,24.1144069 277.739648,24.1144069 C278.344448,24.1144069 278.834048,23.8840069 279.165248,23.6824069 C279.366848,23.5672069 279.453248,23.4952069 279.568448,23.6536069 C279.654848,23.7688069 279.726848,23.8696069 279.813248,23.9848069 C279.914048,24.1144069 279.971648,24.2008069 279.755648,24.3592068 C279.410048,24.6328068 278.632448,25.0216068 277.638848,25.0216068 C275.896448,25.0216068 274.816448,23.6536069 274.816448,21.997607 Z M275.824448,21.436007 L279.251648,21.436007 C279.208448,20.6008071 278.517248,19.8520071 277.638848,19.8520071 C276.674048,19.8520071 275.925248,20.5432071 275.824448,21.436007 Z"/>
  </g>
</svg>
